NotoSansPhagsPa-Regular.ufo
<glyph name="uni1801" format="2">
  <advance width="806"/>
  <unicode hex="1801"/>
  <outline>
    <contour>
      <point x="54" y="342" type="curve" smooth="yes"/>
      <point x="54" y="303"/>
      <point x="76" y="288"/>
      <point x="103" y="288" type="curve" smooth="yes"/>
      <point x="130" y="288"/>
      <point x="153" y="303"/>
      <point x="153" y="342" type="curve" smooth="yes"/>
      <point x="153" y="381"/>
      <point x="130" y="396"/>
      <point x="103" y="396" type="curve" smooth="yes"/>
      <point x="76" y="396"/>
      <point x="54" y="381"/>
    </contour>
    <contour>
      <point x="254" y="342" type="curve" smooth="yes"/>
      <point x="254" y="303"/>
      <point x="276" y="288"/>
      <point x="303" y="288" type="curve" smooth="yes"/>
      <point x="330" y="288"/>
      <point x="353" y="303"/>
      <point x="353" y="342" type="curve" smooth="yes"/>
      <point x="353" y="381"/>
      <point x="330" y="396"/>
      <point x="303" y="396" type="curve" smooth="yes"/>
      <point x="276" y="396"/>
      <point x="254" y="381"/>
    </contour>
    <contour>
      <point x="454" y="342" type="curve" smooth="yes"/>
      <point x="454" y="303"/>
      <point x="476" y="288"/>
      <point x="503" y="288" type="curve" smooth="yes"/>
      <point x="530" y="288"/>
      <point x="553" y="303"/>
      <point x="553" y="342" type="curve" smooth="yes"/>
      <point x="553" y="381"/>
      <point x="530" y="396"/>
      <point x="503" y="396" type="curve" smooth="yes"/>
      <point x="476" y="396"/>
      <point x="454" y="381"/>
    </contour>
    <contour>
      <point x="654" y="342" type="curve" smooth="yes"/>
      <point x="654" y="303"/>
      <point x="676" y="288"/>
      <point x="703" y="288" type="curve" smooth="yes"/>
      <point x="729" y="288"/>
      <point x="752" y="303"/>
      <point x="752" y="342" type="curve" smooth="yes"/>
      <point x="752" y="381"/>
      <point x="729" y="396"/>
      <point x="703" y="396" type="curve" smooth="yes"/>
      <point x="676" y="396"/>
      <point x="654" y="381"/>
    </contour>
  </outline>
</glyph>
<glyph name="uni1802" format="2">
  <advance width="384"/>
  <unicode hex="1802"/>
  <outline>
    <contour>
      <point x="260" y="307" type="curve" smooth="yes"/>
      <point x="260" y="259"/>
      <point x="287" y="239"/>
      <point x="321" y="239" type="curve" smooth="yes"/>
      <point x="355" y="239"/>
      <point x="384" y="259"/>
      <point x="384" y="307" type="curve" smooth="yes"/>
      <point x="384" y="356"/>
      <point x="355" y="374"/>
      <point x="321" y="374" type="curve" smooth="yes"/>
      <point x="287" y="374"/>
      <point x="260" y="356"/>
    </contour>
  </outline>
</glyph>
<glyph name="uni1803" format="2">
  <advance width="638"/>
  <unicode hex="1803"/>
  <outline>
    <contour>
      <point x="260" y="307" type="curve" smooth="yes"/>
      <point x="260" y="259"/>
      <point x="287" y="239"/>
      <point x="321" y="239" type="curve" smooth="yes"/>
      <point x="355" y="239"/>
      <point x="384" y="259"/>
      <point x="384" y="307" type="curve" smooth="yes"/>
      <point x="384" y="356"/>
      <point x="355" y="374"/>
      <point x="321" y="374" type="curve" smooth="yes"/>
      <point x="287" y="374"/>
      <point x="260" y="356"/>
    </contour>
    <contour>
      <point x="514" y="307" type="curve" smooth="yes"/>
      <point x="514" y="259"/>
      <point x="541" y="239"/>
      <point x="575" y="239" type="curve" smooth="yes"/>
      <point x="609" y="239"/>
      <point x="638" y="259"/>
      <point x="638" y="307" type="curve" smooth="yes"/>
      <point x="638" y="356"/>
      <point x="609" y="374"/>
      <point x="575" y="374" type="curve" smooth="yes"/>
      <point x="541" y="374"/>
      <point x="514" y="356"/>
    </contour>
  </outline>
</glyph>
<glyph name="uni1805" format="2">
  <advance width="582"/>
  <unicode hex="1805"/>
  <outline>
    <contour>
      <point x="72" y="307" type="curve" smooth="yes"/>
      <point x="72" y="259"/>
      <point x="99" y="239"/>
      <point x="133" y="239" type="curve" smooth="yes"/>
      <point x="167" y="239"/>
      <point x="196" y="259"/>
      <point x="196" y="307" type="curve" smooth="yes"/>
      <point x="196" y="356"/>
      <point x="167" y="374"/>
      <point x="133" y="374" type="curve" smooth="yes"/>
      <point x="99" y="374"/>
      <point x="72" y="356"/>
    </contour>
    <contour>
      <point x="386" y="307" type="curve" smooth="yes"/>
      <point x="386" y="259"/>
      <point x="413" y="239"/>
      <point x="447" y="239" type="curve" smooth="yes"/>
      <point x="481" y="239"/>
      <point x="510" y="259"/>
      <point x="510" y="307" type="curve" smooth="yes"/>
      <point x="510" y="356"/>
      <point x="481" y="374"/>
      <point x="447" y="374" type="curve" smooth="yes"/>
      <point x="413" y="374"/>
      <point x="386" y="356"/>
    </contour>
    <contour>
      <point x="229" y="107" type="curve" smooth="yes"/>
      <point x="229" y="59"/>
      <point x="256" y="39"/>
      <point x="290" y="39" type="curve" smooth="yes"/>
      <point x="324" y="39"/>
      <point x="353" y="59"/>
      <point x="353" y="107" type="curve" smooth="yes"/>
      <point x="353" y="156"/>
      <point x="324" y="174"/>
      <point x="290" y="174" type="curve" smooth="yes"/>
      <point x="256" y="174"/>
      <point x="229" y="156"/>
    </contour>
    <contour>
      <point x="229" y="507" type="curve" smooth="yes"/>
      <point x="229" y="459"/>
      <point x="256" y="439"/>
      <point x="290" y="439" type="curve" smooth="yes"/>
      <point x="324" y="439"/>
      <point x="353" y="459"/>
      <point x="353" y="507" type="curve" smooth="yes"/>
      <point x="353" y="556"/>
      <point x="324" y="574"/>
      <point x="290" y="574" type="curve" smooth="yes"/>
      <point x="256" y="574"/>
      <point x="229" y="556"/>
    </contour>
  </outline>
</glyph>
<glyph name="twodotenleader" format="2">
  <advance width="399"/>
  <unicode hex="2025"/>
  <outline>
    <contour>
      <point x="50" y="69" type="curve" smooth="yes"/>
      <point x="50" y="30"/>
      <point x="72" y="14"/>
      <point x="99" y="14" type="curve" smooth="yes"/>
      <point x="126" y="14"/>
      <point x="149" y="30"/>
      <point x="149" y="69" type="curve" smooth="yes"/>
      <point x="149" y="108"/>
      <point x="126" y="122"/>
      <point x="99" y="122" type="curve" smooth="yes"/>
      <point x="72" y="122"/>
      <point x="50" y="108"/>
    </contour>
    <contour>
      <point x="250" y="69" type="curve" smooth="yes"/>
      <point x="250" y="30"/>
      <point x="272" y="14"/>
      <point x="299" y="14" type="curve" smooth="yes"/>
      <point x="326" y="14"/>
      <point x="349" y="30"/>
      <point x="349" y="69" type="curve" smooth="yes"/>
      <point x="349" y="108"/>
      <point x="326" y="122"/>
      <point x="299" y="122" type="curve" smooth="yes"/>
      <point x="272" y="122"/>
      <point x="250" y="108"/>
    </contour>
  </outline>
</glyph>
<glyph name="ellipsis" format="2">
  <advance width="599"/>
  <unicode hex="2026"/>
  <outline>
    <contour>
      <point x="50" y="69" type="curve" smooth="yes"/>
      <point x="50" y="30"/>
      <point x="72" y="14"/>
      <point x="99" y="14" type="curve" smooth="yes"/>
      <point x="126" y="14"/>
      <point x="149" y="30"/>
      <point x="149" y="69" type="curve" smooth="yes"/>
      <point x="149" y="108"/>
      <point x="126" y="122"/>
      <point x="99" y="122" type="curve" smooth="yes"/>
      <point x="72" y="122"/>
      <point x="50" y="108"/>
    </contour>
    <contour>
      <point x="250" y="69" type="curve" smooth="yes"/>
      <point x="250" y="30"/>
      <point x="272" y="14"/>
      <point x="299" y="14" type="curve" smooth="yes"/>
      <point x="326" y="14"/>
      <point x="349" y="30"/>
      <point x="349" y="69" type="curve" smooth="yes"/>
      <point x="349" y="108"/>
      <point x="326" y="122"/>
      <point x="299" y="122" type="curve" smooth="yes"/>
      <point x="272" y="122"/>
      <point x="250" y="108"/>
    </contour>
    <contour>
      <point x="450" y="69" type="curve" smooth="yes"/>
      <point x="450" y="30"/>
      <point x="472" y="14"/>
      <point x="499" y="14" type="curve" smooth="yes"/>
      <point x="526" y="14"/>
      <point x="549" y="30"/>
      <point x="549" y="69" type="curve" smooth="yes"/>
      <point x="549" y="108"/>
      <point x="526" y="122"/>
      <point x="499" y="122" type="curve" smooth="yes"/>
      <point x="472" y="122"/>
      <point x="450" y="108"/>
    </contour>
  </outline>
</glyph>
<glyph name="uni3001" format="2">
  <advance width="458"/>
  <unicode hex="3001"/>
  <outline>
    <contour>
      <point x="458" y="345" type="curve"/>
      <point x="397" y="414" type="line"/>
      <point x="348" y="365"/>
      <point x="300" y="305"/>
      <point x="260" y="248" type="curve"/>
      <point x="303" y="209" type="line"/>
      <point x="346" y="258"/>
      <point x="403" y="305"/>
    </contour>
  </outline>
</glyph>
<glyph name="uni3002" format="2">
  <advance width="518"/>
  <unicode hex="3002"/>
  <outline>
    <contour>
      <point x="311" y="306" type="curve" smooth="yes"/>
      <point x="311" y="350"/>
      <point x="345" y="385"/>
      <point x="389" y="385" type="curve" smooth="yes"/>
      <point x="433" y="385"/>
      <point x="468" y="350"/>
      <point x="468" y="306" type="curve" smooth="yes"/>
      <point x="468" y="262"/>
      <point x="433" y="228"/>
      <point x="389" y="228" type="curve" smooth="yes"/>
      <point x="345" y="228"/>
      <point x="311" y="262"/>
    </contour>
    <contour>
      <point x="260" y="307" type="curve" smooth="yes"/>
      <point x="260" y="236"/>
      <point x="318" y="178"/>
      <point x="389" y="178" type="curve" smooth="yes"/>
      <point x="460" y="178"/>
      <point x="518" y="236"/>
      <point x="518" y="307" type="curve" smooth="yes"/>
      <point x="518" y="378"/>
      <point x="460" y="436"/>
      <point x="389" y="436" type="curve" smooth="yes"/>
      <point x="318" y="436"/>
      <point x="260" y="378"/>
    </contour>
  </outline>
</glyph>
<glyph name="uni3007" format="2">
  <advance width="808"/>
  <unicode hex="3007"/>
  <outline>
    <contour>
      <point x="108" y="338" type="curve" smooth="yes"/>
      <point x="108" y="501"/>
      <point x="241" y="634"/>
      <point x="404" y="634" type="curve" smooth="yes"/>
      <point x="567" y="634"/>
      <point x="700" y="501"/>
      <point x="700" y="338" type="curve" smooth="yes"/>
      <point x="700" y="175"/>
      <point x="567" y="43"/>
      <point x="404" y="43" type="curve" smooth="yes"/>
      <point x="241" y="43"/>
      <point x="108" y="175"/>
    </contour>
    <contour>
      <point x="39" y="338" type="curve" smooth="yes"/>
      <point x="39" y="137"/>
      <point x="202" y="-26"/>
      <point x="403" y="-26" type="curve" smooth="yes"/>
      <point x="605" y="-26"/>
      <point x="769" y="137"/>
      <point x="769" y="338" type="curve" smooth="yes"/>
      <point x="769" y="540"/>
      <point x="605" y="704"/>
      <point x="403" y="704" type="curve" smooth="yes"/>
      <point x="202" y="704"/>
      <point x="39" y="540"/>
    </contour>
  </outline>
</glyph>
<glyph name="uni3008" format="2">
  <advance width="586"/>
  <unicode hex="3008"/>
  <outline>
    <contour>
      <point x="339" y="307" type="line"/>
      <point x="507" y="712" type="line"/>
      <point x="427" y="712" type="line"/>
      <point x="259" y="307" type="line"/>
      <point x="442" y="-129" type="line"/>
      <point x="522" y="-129" type="line"/>
    </contour>
  </outline>
</glyph>
<glyph name="uni3009" format="2">
  <advance width="586"/>
  <unicode hex="3009"/>
  <outline>
    <contour>
      <point x="64" y="-129" type="line"/>
      <point x="144" y="-129" type="line"/>
      <point x="327" y="307" type="line"/>
      <point x="159" y="712" type="line"/>
      <point x="79" y="712" type="line"/>
      <point x="247" y="307" type="line"/>
    </contour>
  </outline>
</glyph>
<glyph name="uni300B" format="2">
  <advance width="679"/>
  <unicode hex="300B"/>
  <outline>
    <contour>
      <point x="64" y="712" type="line"/>
      <point x="233" y="307" type="line"/>
      <point x="49" y="-129" type="line"/>
      <point x="129" y="-129" type="line"/>
      <point x="313" y="307" type="line"/>
      <point x="145" y="712" type="line"/>
    </contour>
    <contour>
      <point x="220" y="712" type="line"/>
      <point x="390" y="307" type="line"/>
      <point x="205" y="-129" type="line"/>
      <point x="286" y="-129" type="line"/>
      <point x="469" y="307" type="line"/>
      <point x="301" y="712" type="line"/>
    </contour>
  </outline>
</glyph>
<glyph name="uni300C" format="2">
  <advance width="586"/>
  <unicode hex="300C"/>
  <outline>
    <contour>
      <point x="293" y="-98" type="line"/>
      <point x="367" y="-98" type="line"/>
      <point x="367" y="642" type="line"/>
      <point x="532" y="642" type="line"/>
      <point x="532" y="712" type="line"/>
      <point x="293" y="712" type="line"/>
    </contour>
  </outline>
</glyph>
<glyph name="uni300D" format="2">
  <advance width="586"/>
  <unicode hex="300D"/>
  <outline>
    <contour>
      <point x="54" y="-98" type="line"/>
      <point x="293" y="-98" type="line"/>
      <point x="293" y="712" type="line"/>
      <point x="219" y="712" type="line"/>
      <point x="219" y="-27" type="line"/>
      <point x="54" y="-27" type="line"/>
    </contour>
  </outline>
</glyph>
<glyph name="uni300E" format="2">
  <advance width="610"/>
  <unicode hex="300E"/>
  <outline>
    <contour>
      <point x="562" y="712" type="line"/>
      <point x="244" y="712" type="line"/>
      <point x="244" y="-98" type="line"/>
      <point x="422" y="-98" type="line"/>
      <point x="422" y="546" type="line"/>
      <point x="562" y="546" type="line"/>
    </contour>
    <contour>
      <point x="305" y="656" type="line"/>
      <point x="500" y="656" type="line"/>
      <point x="500" y="602" type="line"/>
      <point x="361" y="602" type="line"/>
      <point x="361" y="-42" type="line"/>
      <point x="305" y="-42" type="line"/>
    </contour>
  </outline>
</glyph>
<glyph name="uni300F" format="2">
  <advance width="610"/>
  <unicode hex="300F"/>
  <outline>
    <contour>
      <point x="49" y="-98" type="line"/>
      <point x="366" y="-98" type="line"/>
      <point x="366" y="712" type="line"/>
      <point x="188" y="712" type="line"/>
      <point x="188" y="68" type="line"/>
      <point x="49" y="68" type="line"/>
    </contour>
    <contour>
      <point x="305" y="-42" type="line"/>
      <point x="110" y="-42" type="line"/>
      <point x="110" y="12" type="line"/>
      <point x="249" y="12" type="line"/>
      <point x="249" y="656" type="line"/>
      <point x="305" y="656" type="line"/>
    </contour>
  </outline>
</glyph>
<glyph name="uni3010" format="2">
  <advance width="586"/>
  <unicode hex="3010"/>
  <outline>
    <contour>
      <point x="244" y="-97" type="line"/>
      <point x="530" y="-97" type="line"/>
      <point x="405" y="24"/>
      <point x="343" y="163"/>
      <point x="343" y="320" type="curve" smooth="yes"/>
      <point x="343" y="485"/>
      <point x="421" y="624"/>
      <point x="537" y="712" type="curve"/>
      <point x="244" y="712" type="line"/>
    </contour>
  </outline>
</glyph>
<glyph name="uni3011" format="2">
  <advance width="586"/>
  <unicode hex="3011"/>
  <outline>
    <contour>
      <point x="342" y="712" type="line"/>
      <point x="49" y="712" type="line"/>
      <point x="165" y="624"/>
      <point x="243" y="485"/>
      <point x="243" y="320" type="curve" smooth="yes"/>
      <point x="243" y="163"/>
      <point x="181" y="24"/>
      <point x="56" y="-97" type="curve"/>
      <point x="342" y="-97" type="line"/>
    </contour>
  </outline>
</glyph>
<glyph name="uni3014" format="2">
  <advance width="586"/>
  <unicode hex="3014"/>
  <outline>
    <contour>
      <point x="495" y="-98" type="line"/>
      <point x="522" y="-32" type="line"/>
      <point x="367" y="43" type="line"/>
      <point x="367" y="571" type="line"/>
      <point x="522" y="646" type="line"/>
      <point x="495" y="712" type="line"/>
      <point x="293" y="612" type="line"/>
      <point x="293" y="2" type="line"/>
    </contour>
  </outline>
</glyph>
<glyph name="uni3015" format="2">
  <advance width="586"/>
  <unicode hex="3015"/>
  <outline>
    <contour>
      <point x="91" y="-98" type="line"/>
      <point x="293" y="2" type="line"/>
      <point x="293" y="612" type="line"/>
      <point x="91" y="712" type="line"/>
      <point x="63" y="646" type="line"/>
      <point x="219" y="571" type="line"/>
      <point x="219" y="43" type="line"/>
      <point x="63" y="-32" type="line"/>
    </contour>
  </outline>
</glyph>
<glyph name="uni3016" format="2">
  <advance width="610"/>
  <unicode hex="3016"/>
  <outline>
    <contour>
      <point x="244" y="-97" type="line"/>
      <point x="550" y="-97" type="line"/>
      <point x="465" y="-5"/>
      <point x="420" y="152"/>
      <point x="420" y="296" type="curve" smooth="yes"/>
      <point x="420" y="444"/>
      <point x="473" y="618"/>
      <point x="562" y="712" type="curve"/>
      <point x="244" y="712" type="line"/>
    </contour>
    <contour>
      <point x="303" y="-41" type="line"/>
      <point x="303" y="656" type="line"/>
      <point x="451" y="656" type="line"/>
      <point x="389" y="560"/>
      <point x="359" y="412"/>
      <point x="359" y="295" type="curve" smooth="yes"/>
      <point x="359" y="175"/>
      <point x="390" y="36"/>
      <point x="441" y="-41" type="curve"/>
    </contour>
  </outline>
</glyph>
<glyph name="uni3017" format="2">
  <advance width="610"/>
  <unicode hex="3017"/>
  <outline>
    <contour>
      <point x="60" y="-97" type="curve"/>
      <point x="366" y="-97" type="line"/>
      <point x="366" y="712" type="line"/>
      <point x="48" y="712" type="line"/>
      <point x="136" y="618"/>
      <point x="189" y="444"/>
      <point x="189" y="296" type="curve" smooth="yes"/>
      <point x="189" y="152"/>
      <point x="145" y="-5"/>
    </contour>
    <contour>
      <point x="169" y="-41" type="line"/>
      <point x="220" y="36"/>
      <point x="250" y="175"/>
      <point x="250" y="295" type="curve" smooth="yes"/>
      <point x="250" y="412"/>
      <point x="220" y="560"/>
      <point x="158" y="656" type="curve"/>
      <point x="308" y="656" type="line"/>
      <point x="308" y="-41" type="line"/>
    </contour>
  </outline>
</glyph>
<glyph name="uni3018" format="2">
  <advance width="586"/>
  <unicode hex="3018"/>
  <outline>
    <contour>
      <point x="513" y="-49" type="line"/>
      <point x="445" y="-10" type="line"/>
      <point x="445" y="625" type="line"/>
      <point x="513" y="663" type="line"/>
      <point x="481" y="712" type="line"/>
      <point x="269" y="592" type="line"/>
      <point x="269" y="22" type="line"/>
      <point x="481" y="-98" type="line"/>
    </contour>
    <contour>
      <point x="327" y="54" type="line"/>
      <point x="327" y="560" type="line"/>
      <point x="387" y="591" type="line"/>
      <point x="387" y="23" type="line"/>
    </contour>
  </outline>
</glyph>
<glyph name="uni3019" format="2">
  <advance width="586"/>
  <unicode hex="3019"/>
  <outline>
    <contour>
      <point x="141" y="-10" type="line"/>
      <point x="73" y="-49" type="line"/>
      <point x="104" y="-98" type="line"/>
      <point x="317" y="22" type="line"/>
      <point x="317" y="592" type="line"/>
      <point x="104" y="712" type="line"/>
      <point x="73" y="663" type="line"/>
      <point x="141" y="625" type="line"/>
    </contour>
    <contour>
      <point x="259" y="560" type="line"/>
      <point x="259" y="54" type="line"/>
      <point x="199" y="23" type="line"/>
      <point x="199" y="591" type="line"/>
    </contour>
  </outline>
</glyph>
<glyph name="uni301B" format="2">
  <advance width="586"/>
  <unicode hex="301B"/>
  <outline>
    <contour>
      <point x="342" y="712" type="line"/>
      <point x="68" y="712" type="line"/>
      <point x="68" y="648" type="line"/>
      <point x="164" y="648" type="line"/>
      <point x="164" y="-34" type="line"/>
      <point x="68" y="-34" type="line"/>
      <point x="68" y="-98" type="line"/>
      <point x="342" y="-98" type="line"/>
    </contour>
    <contour>
      <point x="281" y="648" type="line"/>
      <point x="281" y="-34" type="line"/>
      <point x="225" y="-34" type="line"/>
      <point x="225" y="648" type="line"/>
    </contour>
  </outline>
</glyph>
<glyph name="uniA841" format="2">
  <advance width="712"/>
  <unicode hex="A841"/>
  <outline>
    <contour>
      <point x="644" y="20" type="curve"/>
      <point x="144" y="20" type="line"/>
      <point x="144" y="373" type="line"/>
      <point x="274" y="373" type="line"/>
      <point x="274" y="152" type="line"/>
      <point x="612" y="152" type="line"/>
      <point x="593" y="234"/>
      <point x="582" y="323"/>
      <point x="582" y="411" type="curve" smooth="yes"/>
      <point x="582" y="499"/>
      <point x="593" y="588"/>
      <point x="612" y="670" type="curve"/>
      <point x="274" y="670" type="line"/>
      <point x="274" y="449" type="line"/>
      <point x="144" y="449" type="line"/>
      <point x="144" y="670" type="line"/>
      <point x="70" y="670" type="line"/>
      <point x="70" y="-56" type="line"/>
      <point x="662" y="-56" type="line"/>
      <point x="655" y="-31"/>
      <point x="649" y="-6"/>
    </contour>
    <contour>
      <point x="348" y="594" type="line"/>
      <point x="522" y="594" type="line"/>
      <point x="513" y="542"/>
      <point x="508" y="477"/>
      <point x="508" y="411" type="curve" smooth="yes"/>
      <point x="508" y="345"/>
      <point x="513" y="280"/>
      <point x="522" y="228" type="curve"/>
      <point x="348" y="228" type="line"/>
    </contour>
  </outline>
</glyph>
<glyph name="uniA842" format="2">
  <advance width="712"/>
  <unicode hex="A842"/>
  <outline>
    <contour>
      <point x="274" y="-56" type="line"/>
      <point x="612" y="-56" type="line"/>
      <point x="593" y="26"/>
      <point x="582" y="115"/>
      <point x="582" y="203" type="curve" smooth="yes"/>
      <point x="582" y="291"/>
      <point x="593" y="380"/>
      <point x="612" y="462" type="curve"/>
      <point x="274" y="462" type="line"/>
      <point x="274" y="241" type="line"/>
      <point x="144" y="241" type="line"/>
      <point x="144" y="594" type="line"/>
      <point x="644" y="594" type="line"/>
      <point x="649" y="620"/>
      <point x="655" y="645"/>
      <point x="662" y="670" type="curve"/>
      <point x="70" y="670" type="line"/>
      <point x="70" y="-56" type="line"/>
      <point x="144" y="-56" type="line"/>
      <point x="144" y="165" type="line"/>
      <point x="274" y="165" type="line"/>
    </contour>
    <contour>
      <point x="348" y="20" type="line"/>
      <point x="348" y="386" type="line"/>
      <point x="522" y="386" type="line"/>
      <point x="513" y="334"/>
      <point x="508" y="269"/>
      <point x="508" y="203" type="curve" smooth="yes"/>
      <point x="508" y="137"/>
      <point x="513" y="72"/>
      <point x="522" y="20" type="curve"/>
    </contour>
  </outline>
</glyph>
<glyph name="uniA845" format="2">
  <advance width="712"/>
  <unicode hex="A845"/>
  <outline>
    <contour>
      <point x="70" y="-56" type="line"/>
      <point x="144" y="-56" type="line"/>
      <point x="144" y="269" type="line"/>
      <point x="274" y="269" type="line"/>
      <point x="274" y="-56" type="line"/>
      <point x="621" y="-56" type="line"/>
      <point x="593" y="46"/>
      <point x="582" y="151"/>
      <point x="582" y="264" type="curve" smooth="yes"/>
      <point x="582" y="435"/>
      <point x="605" y="542"/>
      <point x="662" y="670" type="curve"/>
      <point x="274" y="670" type="line"/>
      <point x="274" y="345" type="line"/>
      <point x="144" y="345" type="line"/>
      <point x="144" y="670" type="line"/>
      <point x="70" y="670" type="line"/>
    </contour>
    <contour>
      <point x="348" y="345" type="line"/>
      <point x="348" y="594" type="line"/>
      <point x="552" y="594" type="line"/>
      <point x="528" y="519"/>
      <point x="515" y="438"/>
      <point x="510" y="345" type="curve"/>
    </contour>
    <contour>
      <point x="529" y="20" type="curve"/>
      <point x="348" y="20" type="line"/>
      <point x="348" y="269" type="line"/>
      <point x="508" y="269" type="line"/>
      <point x="508" y="179"/>
      <point x="514" y="99"/>
    </contour>
  </outline>
</glyph>
<glyph name="uniA846" format="2">
  <advance width="747"/>
  <unicode hex="A846"/>
  <outline>
    <contour>
      <point x="70" y="670" type="line"/>
      <point x="70" y="-56" type="line"/>
      <point x="656" y="-56" type="line"/>
      <point x="628" y="46"/>
      <point x="617" y="151"/>
      <point x="617" y="264" type="curve" smooth="yes"/>
      <point x="617" y="435"/>
      <point x="640" y="542"/>
      <point x="697" y="670" type="curve"/>
      <point x="616" y="670" type="line"/>
      <point x="565" y="553"/>
      <point x="543" y="428"/>
      <point x="543" y="264" type="curve" smooth="yes"/>
      <point x="543" y="179"/>
      <point x="548" y="99"/>
      <point x="563" y="20" type="curve"/>
      <point x="388" y="20" type="line"/>
      <point x="388" y="670" type="line"/>
      <point x="314" y="670" type="line"/>
      <point x="314" y="20" type="line"/>
      <point x="144" y="20" type="line"/>
      <point x="144" y="670" type="line"/>
    </contour>
  </outline>
</glyph>
<glyph name="uniA848" format="2">
  <advance width="698"/>
  <unicode hex="A848"/>
  <outline>
    <contour>
      <point x="70" y="670" type="line"/>
      <point x="70" y="-56" type="line"/>
      <point x="628" y="-56" type="line"/>
      <point x="628" y="20" type="line"/>
      <point x="144" y="20" type="line"/>
      <point x="144" y="239" type="line"/>
      <point x="628" y="239" type="line"/>
      <point x="628" y="315" type="line"/>
      <point x="361" y="315" type="line"/>
      <point x="327" y="355"/>
      <point x="310" y="405"/>
      <point x="310" y="462" type="curve" smooth="yes"/>
      <point x="310" y="533"/>
      <point x="355" y="571"/>
      <point x="415" y="571" type="curve" smooth="yes"/>
      <point x="467" y="571"/>
      <point x="516" y="552"/>
      <point x="566" y="506" type="curve"/>
      <point x="591" y="555"/>
      <point x="625" y="618"/>
      <point x="654" y="670" type="curve"/>
      <point x="570" y="670" type="line"/>
      <point x="560" y="653"/>
      <point x="550" y="634"/>
      <point x="541" y="615" type="curve"/>
      <point x="505" y="639"/>
      <point x="465" y="651"/>
      <point x="415" y="651" type="curve" smooth="yes"/>
      <point x="304" y="651"/>
      <point x="232" y="569"/>
      <point x="232" y="462" type="curve" smooth="yes"/>
      <point x="232" y="399"/>
      <point x="245" y="356"/>
      <point x="275" y="315" type="curve"/>
      <point x="144" y="315" type="line"/>
      <point x="144" y="670" type="line"/>
    </contour>
  </outline>
</glyph>
<glyph name="uniA849" format="2">
  <advance width="727"/>
  <unicode hex="A849"/>
  <outline>
    <contour>
      <point x="636" y="-56" type="curve"/>
      <point x="608" y="46"/>
      <point x="597" y="151"/>
      <point x="597" y="264" type="curve" smooth="yes"/>
      <point x="597" y="435"/>
      <point x="620" y="542"/>
      <point x="677" y="670" type="curve"/>
      <point x="70" y="670" type="line"/>
      <point x="70" y="-56" type="line"/>
      <point x="144" y="-56" type="line"/>
      <point x="144" y="67" type="line"/>
      <point x="190" y="16"/>
      <point x="270" y="-24"/>
      <point x="378" y="-46" type="curve"/>
      <point x="378" y="38" type="line"/>
      <point x="426" y="-10"/>
      <point x="515" y="-56"/>
    </contour>
    <contour>
      <point x="378" y="134" type="curve"/>
      <point x="378" y="594" type="line"/>
      <point x="567" y="594" type="line"/>
      <point x="537" y="498"/>
      <point x="523" y="393"/>
      <point x="523" y="264" type="curve" smooth="yes"/>
      <point x="523" y="183"/>
      <point x="528" y="107"/>
      <point x="541" y="32" type="curve"/>
      <point x="466" y="49"/>
      <point x="414" y="86"/>
    </contour>
    <contour>
      <point x="144" y="166" type="curve"/>
      <point x="144" y="594" type="line"/>
      <point x="304" y="594" type="line"/>
      <point x="304" y="51" type="line"/>
      <point x="234" y="72"/>
      <point x="182" y="110"/>
    </contour>
  </outline>
</glyph>
<glyph name="uniA84A" format="2">
  <advance width="523"/>
  <unicode hex="A84A"/>
  <outline>
    <contour>
      <point x="432" y="-56" type="curve"/>
      <point x="404" y="46"/>
      <point x="393" y="151"/>
      <point x="393" y="264" type="curve" smooth="yes"/>
      <point x="393" y="435"/>
      <point x="416" y="542"/>
      <point x="473" y="670" type="curve"/>
      <point x="392" y="670" type="line"/>
      <point x="341" y="553"/>
      <point x="319" y="428"/>
      <point x="319" y="264" type="curve" smooth="yes"/>
      <point x="319" y="183"/>
      <point x="324" y="107"/>
      <point x="337" y="32" type="curve"/>
      <point x="247" y="51"/>
      <point x="186" y="96"/>
      <point x="144" y="154" type="curve"/>
      <point x="144" y="670" type="line"/>
      <point x="70" y="670" type="line"/>
      <point x="70" y="-56" type="line"/>
      <point x="144" y="-56" type="line"/>
      <point x="144" y="57" type="line"/>
      <point x="198" y="-1"/>
      <point x="296" y="-56"/>
    </contour>
  </outline>
</glyph>
<glyph name="uniA84B" format="2">
  <advance width="671"/>
  <unicode hex="A84B"/>
  <outline>
    <contour>
      <point x="601" y="594" type="curve"/>
      <point x="601" y="670" type="line"/>
      <point x="70" y="670" type="line"/>
      <point x="70" y="-56" type="line"/>
      <point x="144" y="-56" type="line"/>
      <point x="144" y="594" type="line"/>
      <point x="395" y="594" type="line" smooth="yes"/>
      <point x="423" y="594"/>
      <point x="461" y="595"/>
      <point x="490" y="597" type="curve"/>
      <point x="490" y="593" type="line"/>
      <point x="326" y="475"/>
      <point x="225" y="317"/>
      <point x="225" y="153" type="curve" smooth="yes"/>
      <point x="225" y="20"/>
      <point x="298" y="-62"/>
      <point x="414" y="-62" type="curve" smooth="yes"/>
      <point x="545" y="-62"/>
      <point x="601" y="34"/>
      <point x="601" y="146" type="curve" smooth="yes"/>
      <point x="601" y="267"/>
      <point x="532" y="355"/>
      <point x="396" y="408" type="curve"/>
      <point x="442" y="467"/>
      <point x="508" y="529"/>
    </contour>
    <contour>
      <point x="523" y="148" type="curve" smooth="yes"/>
      <point x="523" y="66"/>
      <point x="487" y="18"/>
      <point x="414" y="18" type="curve" smooth="yes"/>
      <point x="345" y="18"/>
      <point x="303" y="66"/>
      <point x="303" y="153" type="curve" smooth="yes"/>
      <point x="303" y="217"/>
      <point x="317" y="279"/>
      <point x="353" y="344" type="curve"/>
      <point x="474" y="301"/>
      <point x="523" y="229"/>
    </contour>
  </outline>
</glyph>
<glyph name="uniA84D" format="2">
  <advance width="752"/>
  <unicode hex="A84D"/>
  <outline>
    <contour>
      <point x="314" y="-56" type="line"/>
      <point x="661" y="-56" type="line"/>
      <point x="633" y="46"/>
      <point x="622" y="151"/>
      <point x="622" y="264" type="curve" smooth="yes"/>
      <point x="622" y="435"/>
      <point x="645" y="542"/>
      <point x="702" y="670" type="curve"/>
      <point x="70" y="670" type="line"/>
      <point x="70" y="-56" type="line"/>
      <point x="144" y="-56" type="line"/>
      <point x="144" y="269" type="line"/>
      <point x="314" y="269" type="line"/>
    </contour>
    <contour>
      <point x="388" y="20" type="line"/>
      <point x="388" y="345" type="line"/>
      <point x="144" y="345" type="line"/>
      <point x="144" y="594" type="line"/>
      <point x="592" y="594" type="line"/>
      <point x="562" y="498"/>
      <point x="548" y="393"/>
      <point x="548" y="264" type="curve" smooth="yes"/>
      <point x="548" y="179"/>
      <point x="553" y="99"/>
      <point x="568" y="20" type="curve"/>
    </contour>
  </outline>
</glyph>
<glyph name="uniA84F" format="2">
  <advance width="671"/>
  <unicode hex="A84F"/>
  <outline>
    <contour>
      <point x="144" y="-56" type="line"/>
      <point x="144" y="385" type="line"/>
      <point x="207" y="385"/>
      <point x="255" y="381"/>
      <point x="304" y="369" type="curve"/>
      <point x="265" y="294"/>
      <point x="245" y="216"/>
      <point x="245" y="143" type="curve" smooth="yes"/>
      <point x="245" y="16"/>
      <point x="314" y="-62"/>
      <point x="424" y="-62" type="curve" smooth="yes"/>
      <point x="548" y="-62"/>
      <point x="601" y="29"/>
      <point x="601" y="136" type="curve" smooth="yes"/>
      <point x="601" y="265"/>
      <point x="530" y="359"/>
      <point x="417" y="411" type="curve"/>
      <point x="460" y="470"/>
      <point x="519" y="531"/>
      <point x="601" y="594" type="curve"/>
      <point x="601" y="670" type="line"/>
      <point x="70" y="670" type="line"/>
      <point x="70" y="594" type="line"/>
      <point x="395" y="594" type="line" smooth="yes"/>
      <point x="423" y="594"/>
      <point x="461" y="595"/>
      <point x="490" y="597" type="curve"/>
      <point x="490" y="593" type="line"/>
      <point x="432" y="548"/>
      <point x="383" y="494"/>
      <point x="344" y="437" type="curve"/>
      <point x="286" y="453"/>
      <point x="220" y="461"/>
      <point x="152" y="461" type="curve" smooth="yes"/>
      <point x="70" y="461" type="line"/>
      <point x="70" y="-56" type="line"/>
    </contour>
    <contour>
      <point x="523" y="138" type="curve" smooth="yes"/>
      <point x="523" y="62"/>
      <point x="490" y="18"/>
      <point x="424" y="18" type="curve" smooth="yes"/>
      <point x="361" y="18"/>
      <point x="323" y="62"/>
      <point x="323" y="143" type="curve" smooth="yes"/>
      <point x="323" y="207"/>
      <point x="338" y="275"/>
      <point x="376" y="346" type="curve"/>
      <point x="476" y="304"/>
      <point x="523" y="232"/>
    </contour>
  </outline>
</glyph>
<glyph name="uniA851" format="2">
  <advance width="638"/>
  <unicode hex="A851"/>
  <outline>
    <contour>
      <point x="568" y="594" type="line"/>
      <point x="568" y="670" type="line"/>
      <point x="70" y="670" type="line"/>
      <point x="70" y="-56" type="line"/>
      <point x="144" y="-56" type="line"/>
      <point x="144" y="594" type="line"/>
      <point x="243" y="594" type="line" smooth="yes"/>
      <point x="271" y="594"/>
      <point x="309" y="594"/>
      <point x="338" y="596" type="curve"/>
      <point x="338" y="593" type="line"/>
      <point x="281" y="532"/>
      <point x="255" y="473"/>
      <point x="255" y="398" type="curve" smooth="yes"/>
      <point x="255" y="347"/>
      <point x="269" y="304"/>
      <point x="292" y="269" type="curve"/>
      <point x="385" y="269" type="line" smooth="yes"/>
      <point x="463" y="269"/>
      <point x="500" y="235"/>
      <point x="500" y="164" type="curve" smooth="yes"/>
      <point x="500" y="79"/>
      <point x="443" y="20"/>
      <point x="313" y="20" type="curve" smooth="yes"/>
      <point x="245" y="20" type="line"/>
      <point x="245" y="-56" type="line"/>
      <point x="313" y="-56" type="line" smooth="yes"/>
      <point x="488" y="-56"/>
      <point x="578" y="28"/>
      <point x="578" y="164" type="curve" smooth="yes"/>
      <point x="578" y="273"/>
      <point x="518" y="345"/>
      <point x="385" y="345" type="curve" smooth="yes"/>
      <point x="344" y="345" type="line"/>
      <point x="336" y="358"/>
      <point x="331" y="378"/>
      <point x="331" y="401" type="curve" smooth="yes"/>
      <point x="331" y="464"/>
      <point x="363" y="531"/>
      <point x="433" y="594" type="curve"/>
    </contour>
  </outline>
</glyph>
<glyph name="uniA852" format="2">
  <advance width="762"/>
  <unicode hex="A852"/>
  <outline>
    <contour>
      <point x="632" y="-56" type="line"/>
      <point x="632" y="270" type="line"/>
      <point x="632" y="438"/>
      <point x="655" y="545"/>
      <point x="712" y="670" type="curve"/>
      <point x="70" y="670" type="line"/>
      <point x="70" y="-56" type="line"/>
      <point x="144" y="-56" type="line"/>
      <point x="144" y="74" type="line"/>
      <point x="314" y="74" type="line"/>
      <point x="314" y="-56" type="line"/>
      <point x="388" y="-56" type="line"/>
      <point x="388" y="269" type="line"/>
      <point x="558" y="269" type="line"/>
      <point x="558" y="-56" type="line"/>
    </contour>
    <contour>
      <point x="144" y="150" type="line"/>
      <point x="144" y="594" type="line"/>
      <point x="602" y="594" type="line"/>
      <point x="578" y="519"/>
      <point x="564" y="438"/>
      <point x="559" y="345" type="curve"/>
      <point x="314" y="345" type="line"/>
      <point x="314" y="150" type="line"/>
    </contour>
  </outline>
</glyph>
<glyph name="uniA853" format="2">
  <advance width="770"/>
  <unicode hex="A853"/>
  <outline>
    <contour>
      <point x="70" y="670" type="line"/>
      <point x="70" y="-56" type="line"/>
      <point x="720" y="-56" type="line"/>
      <point x="713" y="-31"/>
      <point x="707" y="-6"/>
      <point x="702" y="20" type="curve"/>
      <point x="144" y="20" type="line"/>
      <point x="144" y="357" type="line"/>
      <point x="270" y="357" type="line"/>
      <point x="270" y="120" type="line"/>
      <point x="344" y="120" type="line"/>
      <point x="344" y="294" type="line"/>
      <point x="418" y="201"/>
      <point x="557" y="120"/>
      <point x="682" y="120" type="curve"/>
      <point x="660" y="206"/>
      <point x="648" y="303"/>
      <point x="648" y="395" type="curve" smooth="yes"/>
      <point x="648" y="487"/>
      <point x="660" y="584"/>
      <point x="682" y="670" type="curve"/>
      <point x="557" y="670"/>
      <point x="418" y="589"/>
      <point x="344" y="495" type="curve"/>
      <point x="344" y="670" type="line"/>
      <point x="270" y="670" type="line"/>
      <point x="270" y="433" type="line"/>
      <point x="144" y="433" type="line"/>
      <point x="144" y="670" type="line"/>
    </contour>
    <contour>
      <point x="587" y="575" type="curve"/>
      <point x="579" y="524"/>
      <point x="574" y="460"/>
      <point x="574" y="395" type="curve" smooth="yes"/>
      <point x="574" y="330"/>
      <point x="579" y="266"/>
      <point x="587" y="214" type="curve"/>
      <point x="497" y="241"/>
      <point x="406" y="308"/>
      <point x="344" y="395" type="curve"/>
      <point x="406" y="481"/>
      <point x="497" y="548"/>
    </contour>
  </outline>
</glyph>
<glyph name="uniA854" format="2">
  <advance width="705"/>
  <unicode hex="A854"/>
  <outline>
    <contour>
      <point x="624" y="594" type="curve" smooth="yes"/>
      <point x="635" y="594" type="line"/>
      <point x="635" y="670" type="line"/>
      <point x="617" y="670" type="line" smooth="yes"/>
      <point x="540" y="670"/>
      <point x="479" y="658"/>
      <point x="424" y="626" type="curve"/>
      <point x="368" y="658"/>
      <point x="308" y="670"/>
      <point x="231" y="670" type="curve" smooth="yes"/>
      <point x="70" y="670" type="line"/>
      <point x="70" y="-56" type="line"/>
      <point x="635" y="-56" type="line"/>
      <point x="635" y="20" type="line"/>
      <point x="144" y="20" type="line"/>
      <point x="144" y="594" type="line"/>
      <point x="224" y="594" type="line" smooth="yes"/>
      <point x="281" y="594"/>
      <point x="322" y="588"/>
      <point x="356" y="575" type="curve"/>
      <point x="286" y="509"/>
      <point x="245" y="418"/>
      <point x="245" y="318" type="curve" smooth="yes"/>
      <point x="245" y="193"/>
      <point x="314" y="118"/>
      <point x="424" y="118" type="curve" smooth="yes"/>
      <point x="534" y="118"/>
      <point x="603" y="193"/>
      <point x="603" y="318" type="curve" smooth="yes"/>
      <point x="603" y="418"/>
      <point x="561" y="509"/>
      <point x="492" y="575" type="curve"/>
      <point x="525" y="588"/>
      <point x="566" y="594"/>
    </contour>
    <contour>
      <point x="525" y="318" type="curve" smooth="yes"/>
      <point x="525" y="238"/>
      <point x="487" y="198"/>
      <point x="424" y="198" type="curve" smooth="yes"/>
      <point x="361" y="198"/>
      <point x="323" y="238"/>
      <point x="323" y="318" type="curve" smooth="yes"/>
      <point x="323" y="398"/>
      <point x="356" y="474"/>
      <point x="424" y="532" type="curve"/>
      <point x="491" y="474"/>
      <point x="525" y="398"/>
    </contour>
  </outline>
</glyph>
<glyph name="uniA856" format="2">
  <advance width="750"/>
  <unicode hex="A856"/>
  <outline>
    <contour>
      <point x="652" y="670" type="curve"/>
      <point x="577" y="670" type="line"/>
      <point x="558" y="600"/>
      <point x="548" y="519"/>
      <point x="548" y="430" type="curve" smooth="yes"/>
      <point x="548" y="372"/>
      <point x="553" y="313"/>
      <point x="562" y="267" type="curve"/>
      <point x="388" y="267" type="line"/>
      <point x="388" y="670" type="line"/>
      <point x="70" y="670" type="line"/>
      <point x="70" y="-56" type="line"/>
      <point x="700" y="-56" type="line"/>
      <point x="693" y="-31"/>
      <point x="687" y="-6"/>
      <point x="682" y="20" type="curve"/>
      <point x="144" y="20" type="line"/>
      <point x="144" y="594" type="line"/>
      <point x="314" y="594" type="line"/>
      <point x="314" y="191" type="line"/>
      <point x="652" y="191" type="line"/>
      <point x="633" y="267"/>
      <point x="622" y="348"/>
      <point x="622" y="430" type="curve" smooth="yes"/>
      <point x="622" y="512"/>
      <point x="633" y="594"/>
    </contour>
  </outline>
</glyph>
<glyph name="uniA857" format="2">
  <advance width="592"/>
  <unicode hex="A857"/>
  <outline>
    <contour>
      <point x="70" y="-56" type="line"/>
      <point x="286" y="-56" type="line" smooth="yes"/>
      <point x="417" y="-56"/>
      <point x="507" y="23"/>
      <point x="507" y="144" type="curve" smooth="yes"/>
      <point x="507" y="229"/>
      <point x="462" y="295"/>
      <point x="389" y="325" type="curve"/>
      <point x="409" y="419"/>
      <point x="453" y="523"/>
      <point x="572" y="670" type="curve"/>
      <point x="70" y="670" type="line"/>
      <point x="70" y="594" type="line"/>
      <point x="424" y="594" type="line"/>
      <point x="376" y="519"/>
      <point x="338" y="434"/>
      <point x="316" y="343" type="curve"/>
      <point x="306" y="344"/>
      <point x="296" y="345"/>
      <point x="286" y="345" type="curve" smooth="yes"/>
      <point x="70" y="345" type="line"/>
      <point x="70" y="269" type="line"/>
      <point x="286" y="269" type="line" smooth="yes"/>
      <point x="374" y="269"/>
      <point x="429" y="223"/>
      <point x="429" y="144" type="curve" smooth="yes"/>
      <point x="429" y="64"/>
      <point x="374" y="20"/>
      <point x="286" y="20" type="curve" smooth="yes"/>
      <point x="70" y="20" type="line"/>
    </contour>
  </outline>
</glyph>
<glyph name="uniA859" format="2">
  <advance width="746"/>
  <unicode hex="A859"/>
  <outline>
    <contour>
      <point x="70" y="456" type="line"/>
      <point x="70" y="-56" type="line"/>
      <point x="696" y="-56" type="line"/>
      <point x="689" y="-31"/>
      <point x="683" y="-6"/>
      <point x="678" y="20" type="curve"/>
      <point x="144" y="20" type="line"/>
      <point x="144" y="380" type="line"/>
      <point x="314" y="380" type="line"/>
      <point x="314" y="158" type="line"/>
      <point x="652" y="158" type="line"/>
      <point x="633" y="238"/>
      <point x="622" y="327"/>
      <point x="622" y="413" type="curve" smooth="yes"/>
      <point x="622" y="500"/>
      <point x="633" y="589"/>
      <point x="652" y="670" type="curve"/>
      <point x="70" y="670" type="line"/>
      <point x="70" y="594" type="line"/>
      <point x="562" y="594" type="line"/>
      <point x="553" y="543"/>
      <point x="548" y="478"/>
      <point x="548" y="413" type="curve" smooth="yes"/>
      <point x="548" y="349"/>
      <point x="553" y="284"/>
      <point x="562" y="234" type="curve"/>
      <point x="388" y="234" type="line"/>
      <point x="388" y="456" type="line"/>
    </contour>
  </outline>
</glyph>
<glyph name="uniA85C" format="2">
  <advance width="720"/>
  <unicode hex="A85C"/>
  <outline>
    <contour>
      <point x="700" y="670" type="curve"/>
      <point x="616" y="670" type="line"/>
      <point x="599" y="638"/>
      <point x="579" y="601"/>
      <point x="563" y="569" type="curve"/>
      <point x="527" y="595"/>
      <point x="486" y="610"/>
      <point x="435" y="610" type="curve" smooth="yes"/>
      <point x="310" y="610"/>
      <point x="232" y="522"/>
      <point x="232" y="412" type="curve" smooth="yes"/>
      <point x="232" y="312"/>
      <point x="288" y="248"/>
      <point x="376" y="201" type="curve"/>
      <point x="356" y="166"/>
      <point x="334" y="123"/>
      <point x="318" y="88" type="curve"/>
      <point x="261" y="118"/>
      <point x="194" y="163"/>
      <point x="144" y="204" type="curve"/>
      <point x="144" y="670" type="line"/>
      <point x="70" y="670" type="line"/>
      <point x="70" y="-56" type="line"/>
      <point x="144" y="-56" type="line"/>
      <point x="144" y="112" type="line"/>
      <point x="205" y="67"/>
      <point x="278" y="23"/>
      <point x="349" y="-12" type="curve"/>
      <point x="384" y="61"/>
      <point x="431" y="152"/>
      <point x="478" y="236" type="curve"/>
      <point x="392" y="273"/>
      <point x="310" y="321"/>
      <point x="310" y="412" type="curve" smooth="yes"/>
      <point x="310" y="488"/>
      <point x="361" y="530"/>
      <point x="435" y="530" type="curve" smooth="yes"/>
      <point x="488" y="530"/>
      <point x="536" y="506"/>
      <point x="586" y="456" type="curve"/>
      <point x="610" y="503"/>
      <point x="660" y="597"/>
    </contour>
  </outline>
</glyph>
<glyph name="uniA85F" format="2">
  <advance width="842"/>
  <unicode hex="A85F"/>
  <outline>
    <contour>
      <point x="144" y="670" type="line"/>
      <point x="70" y="670" type="line"/>
      <point x="70" y="-56" type="line"/>
      <point x="144" y="-56" type="line"/>
      <point x="144" y="269" type="line"/>
      <point x="256" y="269" type="line"/>
      <point x="285" y="188"/>
      <point x="348" y="142"/>
      <point x="427" y="142" type="curve" smooth="yes"/>
      <point x="531" y="142"/>
      <point x="599" y="220"/>
      <point x="599" y="319" type="curve" smooth="yes"/>
      <point x="599" y="384"/>
      <point x="580" y="434"/>
      <point x="542" y="473" type="curve"/>
      <point x="479" y="424" type="line"/>
      <point x="506" y="398"/>
      <point x="521" y="356"/>
      <point x="521" y="319" type="curve" smooth="yes"/>
      <point x="521" y="258"/>
      <point x="482" y="222"/>
      <point x="427" y="222" type="curve" smooth="yes"/>
      <point x="363" y="222"/>
      <point x="318" y="270"/>
      <point x="318" y="375" type="curve" smooth="yes"/>
      <point x="318" y="501"/>
      <point x="388" y="597"/>
      <point x="511" y="597" type="curve" smooth="yes"/>
      <point x="648" y="597"/>
      <point x="724" y="485"/>
      <point x="724" y="335" type="curve" smooth="yes"/>
      <point x="724" y="141"/>
      <point x="608" y="20"/>
      <point x="386" y="20" type="curve"/>
      <point x="386" y="-56" type="line"/>
      <point x="648" y="-56"/>
      <point x="802" y="86"/>
      <point x="802" y="335" type="curve" smooth="yes"/>
      <point x="802" y="520"/>
      <point x="696" y="677"/>
      <point x="511" y="677" type="curve" smooth="yes"/>
      <point x="338" y="677"/>
      <point x="240" y="540"/>
      <point x="240" y="375" type="curve" smooth="yes"/>
      <point x="240" y="364"/>
      <point x="240" y="354"/>
      <point x="241" y="345" type="curve"/>
      <point x="144" y="345" type="line"/>
    </contour>
  </outline>
</glyph>
<glyph name="uniA861" format="2">
  <advance width="463"/>
  <unicode hex="A861"/>
  <outline>
    <contour>
      <point x="144" y="670" type="line"/>
      <point x="70" y="670" type="line"/>
      <point x="70" y="-56" type="line"/>
      <point x="144" y="-56" type="line"/>
      <point x="144" y="231" type="line"/>
      <point x="234" y="143"/>
      <point x="295" y="52"/>
      <point x="341" y="-56" type="curve"/>
      <point x="423" y="-56" type="line"/>
      <point x="368" y="84"/>
      <point x="282" y="207"/>
      <point x="168" y="307" type="curve"/>
      <point x="282" y="406"/>
      <point x="368" y="529"/>
      <point x="423" y="670" type="curve"/>
      <point x="341" y="670" type="line"/>
      <point x="295" y="561"/>
      <point x="234" y="470"/>
      <point x="144" y="382" type="curve"/>
    </contour>
  </outline>
</glyph>
<glyph name="uniA862" format="2">
  <advance width="633"/>
  <unicode hex="A862"/>
  <outline>
    <contour>
      <point x="578" y="594" type="curve"/>
      <point x="578" y="670" type="line"/>
      <point x="70" y="670" type="line"/>
      <point x="70" y="-56" type="line"/>
      <point x="578" y="-56" type="line"/>
      <point x="578" y="20" type="line"/>
      <point x="144" y="20" type="line"/>
      <point x="144" y="291" type="line"/>
      <point x="213" y="253"/>
      <point x="297" y="239"/>
      <point x="404" y="239" type="curve"/>
      <point x="434" y="382"/>
      <point x="493" y="499"/>
    </contour>
    <contour>
      <point x="144" y="375" type="curve"/>
      <point x="144" y="594" type="line"/>
      <point x="386" y="594" type="line" smooth="yes"/>
      <point x="421" y="594"/>
      <point x="460" y="595"/>
      <point x="489" y="596" type="curve"/>
      <point x="489" y="592" type="line"/>
      <point x="422" y="514"/>
      <point x="371" y="409"/>
      <point x="350" y="316" type="curve"/>
      <point x="266" y="319"/>
      <point x="208" y="333"/>
    </contour>
  </outline>
</glyph>
<glyph name="uniA863" format="2">
  <advance width="743"/>
  <unicode hex="A863"/>
  <outline>
    <contour>
      <point x="70" y="670" type="line"/>
      <point x="70" y="-56" type="line"/>
      <point x="668" y="-56" type="line"/>
      <point x="661" y="-31"/>
      <point x="655" y="-6"/>
      <point x="650" y="20" type="curve"/>
      <point x="144" y="20" type="line"/>
      <point x="144" y="286" type="line"/>
      <point x="190" y="235"/>
      <point x="270" y="195"/>
      <point x="378" y="174" type="curve"/>
      <point x="378" y="249" type="line"/>
      <point x="428" y="204"/>
      <point x="511" y="165"/>
      <point x="622" y="164" type="curve"/>
      <point x="617" y="202"/>
      <point x="615" y="235"/>
      <point x="615" y="274" type="curve" smooth="yes"/>
      <point x="615" y="441"/>
      <point x="637" y="545"/>
      <point x="693" y="670" type="curve"/>
    </contour>
    <contour>
      <point x="378" y="342" type="curve"/>
      <point x="378" y="594" type="line"/>
      <point x="583" y="594" type="line"/>
      <point x="554" y="501"/>
      <point x="541" y="399"/>
      <point x="541" y="274" type="curve" smooth="yes"/>
      <point x="541" y="250" type="line"/>
      <point x="467" y="264"/>
      <point x="415" y="298"/>
    </contour>
    <contour>
      <point x="144" y="386" type="curve"/>
      <point x="144" y="594" type="line"/>
      <point x="304" y="594" type="line"/>
      <point x="304" y="271" type="line"/>
      <point x="234" y="292"/>
      <point x="182" y="330"/>
    </contour>
  </outline>
</glyph>
<glyph name="uniA865" format="2">
  <advance width="633"/>
  <unicode hex="A865"/>
  <outline>
    <contour>
      <point x="578" y="-56" type="line"/>
      <point x="578" y="20" type="line"/>
      <point x="493" y="115"/>
      <point x="434" y="232"/>
      <point x="404" y="375" type="curve"/>
      <point x="297" y="375"/>
      <point x="213" y="360"/>
      <point x="144" y="323" type="curve"/>
      <point x="144" y="594" type="line"/>
      <point x="578" y="594" type="line"/>
      <point x="578" y="670" type="line"/>
      <point x="70" y="670" type="line"/>
      <point x="70" y="-56" type="line"/>
    </contour>
    <contour>
      <point x="350" y="298" type="curve"/>
      <point x="371" y="205"/>
      <point x="422" y="99"/>
      <point x="489" y="22" type="curve"/>
      <point x="489" y="18" type="line"/>
      <point x="460" y="19"/>
      <point x="421" y="20"/>
      <point x="386" y="20" type="curve" smooth="yes"/>
      <point x="144" y="20" type="line"/>
      <point x="144" y="238" type="line"/>
      <point x="208" y="280"/>
      <point x="266" y="294"/>
    </contour>
  </outline>
</glyph>
<glyph name="uniA866" format="2">
  <advance width="503"/>
  <unicode hex="A866"/>
  <outline>
    <contour>
      <point x="70" y="670" type="line"/>
      <point x="70" y="-56" type="line"/>
      <point x="412" y="-56" type="line"/>
      <point x="384" y="46"/>
      <point x="373" y="151"/>
      <point x="373" y="264" type="curve" smooth="yes"/>
      <point x="373" y="435"/>
      <point x="396" y="542"/>
      <point x="453" y="670" type="curve"/>
      <point x="372" y="670" type="line"/>
      <point x="321" y="553"/>
      <point x="299" y="428"/>
      <point x="299" y="264" type="curve" smooth="yes"/>
      <point x="299" y="178"/>
      <point x="304" y="99"/>
      <point x="320" y="20" type="curve"/>
      <point x="144" y="20" type="line"/>
      <point x="144" y="670" type="line"/>
    </contour>
  </outline>
</glyph>
<glyph name="uniA867" format="2">
  <advance width="570"/>
  <unicode hex="A867"/>
  <outline>
    <contour>
      <point x="233" y="-56" type="curve"/>
      <point x="345" y="-56" type="line"/>
      <point x="363" y="197"/>
      <point x="413" y="451"/>
      <point x="540" y="670" type="curve"/>
      <point x="40" y="670" type="line"/>
      <point x="49" y="359"/>
      <point x="139" y="102"/>
    </contour>
    <contour>
      <point x="118" y="594" type="curve"/>
      <point x="416" y="594" type="line"/>
      <point x="338" y="408"/>
      <point x="299" y="248"/>
      <point x="279" y="19" type="curve"/>
      <point x="275" y="19" type="line"/>
      <point x="186" y="199"/>
      <point x="135" y="379"/>
    </contour>
  </outline>
</glyph>
<glyph name="uniA868" format="2">
  <advance width="453"/>
  <unicode hex="A868"/>
  <outline>
    <contour>
      <point x="136" y="670" type="curve"/>
      <point x="60" y="670" type="line"/>
      <point x="78" y="561"/>
      <point x="89" y="450"/>
      <point x="89" y="311" type="curve" smooth="yes"/>
      <point x="89" y="185"/>
      <point x="80" y="59"/>
      <point x="62" y="-56" type="curve"/>
      <point x="109" y="-56" type="line" smooth="yes"/>
      <point x="268" y="-56"/>
      <point x="393" y="28"/>
      <point x="393" y="358" type="curve" smooth="yes"/>
      <point x="393" y="464"/>
      <point x="381" y="571"/>
      <point x="356" y="670" type="curve"/>
      <point x="282" y="670" type="line"/>
      <point x="307" y="571"/>
      <point x="319" y="464"/>
      <point x="319" y="361" type="curve" smooth="yes"/>
      <point x="319" y="105"/>
      <point x="242" y="28"/>
      <point x="144" y="20" type="curve"/>
      <point x="156" y="102"/>
      <point x="163" y="204"/>
      <point x="163" y="311" type="curve" smooth="yes"/>
      <point x="163" y="450"/>
      <point x="154" y="561"/>
    </contour>
  </outline>
</glyph>
<glyph name="uniA869" format="2">
  <advance width="698"/>
  <unicode hex="A869"/>
  <outline>
    <contour>
      <point x="70" y="-56" type="line"/>
      <point x="144" y="-56" type="line"/>
      <point x="144" y="299" type="line"/>
      <point x="275" y="299" type="line"/>
      <point x="245" y="258"/>
      <point x="232" y="215"/>
      <point x="232" y="152" type="curve" smooth="yes"/>
      <point x="232" y="45"/>
      <point x="304" y="-37"/>
      <point x="415" y="-37" type="curve" smooth="yes"/>
      <point x="465" y="-37"/>
      <point x="505" y="-25"/>
      <point x="540" y="-1" type="curve"/>
      <point x="550" y="-20"/>
      <point x="560" y="-39"/>
      <point x="570" y="-56" type="curve"/>
      <point x="654" y="-56" type="line"/>
      <point x="625" y="-4"/>
      <point x="591" y="59"/>
      <point x="566" y="108" type="curve"/>
      <point x="516" y="62"/>
      <point x="467" y="43"/>
      <point x="415" y="43" type="curve" smooth="yes"/>
      <point x="355" y="43"/>
      <point x="310" y="81"/>
      <point x="310" y="152" type="curve" smooth="yes"/>
      <point x="310" y="209"/>
      <point x="327" y="259"/>
      <point x="361" y="299" type="curve"/>
      <point x="628" y="299" type="line"/>
      <point x="628" y="375" type="line"/>
      <point x="144" y="375" type="line"/>
      <point x="144" y="594" type="line"/>
      <point x="628" y="594" type="line"/>
      <point x="628" y="670" type="line"/>
      <point x="70" y="670" type="line"/>
    </contour>
  </outline>
</glyph>
<glyph name="uniA86B" format="2">
  <advance width="523"/>
  <unicode hex="A86B"/>
  <outline>
    <contour>
      <point x="432" y="670" type="curve"/>
      <point x="296" y="670"/>
      <point x="198" y="615"/>
      <point x="144" y="556" type="curve"/>
      <point x="144" y="670" type="line"/>
      <point x="70" y="670" type="line"/>
      <point x="70" y="-56" type="line"/>
      <point x="144" y="-56" type="line"/>
      <point x="144" y="459" type="line"/>
      <point x="186" y="517"/>
      <point x="247" y="563"/>
      <point x="337" y="581" type="curve"/>
      <point x="324" y="506"/>
      <point x="319" y="431"/>
      <point x="319" y="350" type="curve" smooth="yes"/>
      <point x="319" y="186"/>
      <point x="341" y="61"/>
      <point x="392" y="-56" type="curve"/>
      <point x="473" y="-56" type="line"/>
      <point x="416" y="72"/>
      <point x="393" y="179"/>
      <point x="393" y="350" type="curve" smooth="yes"/>
      <point x="393" y="463"/>
      <point x="404" y="568"/>
    </contour>
  </outline>
</glyph>
<glyph name="uniA86E" format="2">
  <advance width="750"/>
  <unicode hex="A86E"/>
  <outline>
    <contour>
      <point x="144" y="594" type="line"/>
      <point x="682" y="594" type="line"/>
      <point x="687" y="620"/>
      <point x="693" y="645"/>
      <point x="700" y="670" type="curve"/>
      <point x="70" y="670" type="line"/>
      <point x="70" y="-56" type="line"/>
      <point x="388" y="110" type="line"/>
      <point x="388" y="347" type="line"/>
      <point x="562" y="347" type="line"/>
      <point x="553" y="301"/>
      <point x="548" y="242"/>
      <point x="548" y="184" type="curve" smooth="yes"/>
      <point x="548" y="95"/>
      <point x="558" y="14"/>
      <point x="577" y="-56" type="curve"/>
      <point x="652" y="-56" type="line"/>
      <point x="633" y="20"/>
      <point x="622" y="102"/>
      <point x="622" y="184" type="curve" smooth="yes"/>
      <point x="622" y="266"/>
      <point x="633" y="347"/>
      <point x="652" y="423" type="curve"/>
      <point x="314" y="423" type="line"/>
      <point x="314" y="156" type="line"/>
      <point x="144" y="67" type="line"/>
    </contour>
  </outline>
</glyph>
<glyph name="uniA86F" format="2">
  <advance width="730"/>
  <unicode hex="A86F"/>
  <outline>
    <contour>
      <point x="700" y="356" type="curve"/>
      <point x="700" y="464" type="line"/>
      <point x="681" y="482"/>
      <point x="659" y="502"/>
      <point x="641" y="517" type="curve" smooth="yes"/>
      <point x="563" y="584"/>
      <point x="506" y="610"/>
      <point x="435" y="610" type="curve" smooth="yes"/>
      <point x="310" y="610"/>
      <point x="232" y="522"/>
      <point x="232" y="412" type="curve" smooth="yes"/>
      <point x="232" y="312"/>
      <point x="288" y="248"/>
      <point x="376" y="201" type="curve"/>
      <point x="356" y="166"/>
      <point x="334" y="123"/>
      <point x="318" y="88" type="curve"/>
      <point x="261" y="118"/>
      <point x="194" y="163"/>
      <point x="144" y="204" type="curve"/>
      <point x="144" y="670" type="line"/>
      <point x="70" y="670" type="line"/>
      <point x="70" y="-56" type="line"/>
      <point x="144" y="-56" type="line"/>
      <point x="144" y="112" type="line"/>
      <point x="205" y="67"/>
      <point x="278" y="23"/>
      <point x="349" y="-12" type="curve"/>
      <point x="384" y="61"/>
      <point x="431" y="152"/>
      <point x="478" y="236" type="curve"/>
      <point x="392" y="273"/>
      <point x="310" y="321"/>
      <point x="310" y="412" type="curve" smooth="yes"/>
      <point x="310" y="488"/>
      <point x="361" y="530"/>
      <point x="435" y="530" type="curve" smooth="yes"/>
      <point x="488" y="530"/>
      <point x="538" y="508"/>
      <point x="596" y="456" type="curve" smooth="yes"/>
      <point x="623" y="432"/>
      <point x="662" y="395"/>
    </contour>
  </outline>
</glyph>
<glyph name="uniA872" format="2">
  <advance width="396"/>
  <unicode hex="A872"/>
  <outline>
    <contour>
      <point x="144" y="345" type="line"/>
      <point x="144" y="670" type="line"/>
      <point x="70" y="670" type="line"/>
      <point x="70" y="-56" type="line"/>
      <point x="144" y="-56" type="line"/>
      <point x="144" y="269" type="line"/>
      <point x="356" y="269" type="line"/>
      <point x="356" y="345" type="line"/>
    </contour>
  </outline>
</glyph>
<glyph name="uniA873" format="2">
  <advance width="563"/>
  <unicode hex="A873"/>
  <outline>
    <contour>
      <point x="493" y="307" type="curve" smooth="yes"/>
      <point x="493" y="474"/>
      <point x="428" y="590"/>
      <point x="348" y="670" type="curve"/>
      <point x="253" y="670" type="line"/>
      <point x="354" y="579"/>
      <point x="413" y="461"/>
      <point x="413" y="307" type="curve" smooth="yes"/>
      <point x="413" y="153"/>
      <point x="354" y="35"/>
      <point x="253" y="-56" type="curve"/>
      <point x="348" y="-56" type="line"/>
      <point x="428" y="24"/>
      <point x="493" y="140"/>
    </contour>
    <contour>
      <point x="40" y="340" type="line"/>
      <point x="40" y="274" type="line"/>
      <point x="137" y="239" type="line" smooth="yes"/>
      <point x="168" y="228"/>
      <point x="187" y="225"/>
      <point x="210" y="225" type="curve" smooth="yes"/>
      <point x="265" y="225"/>
      <point x="292" y="252"/>
      <point x="292" y="307" type="curve" smooth="yes"/>
      <point x="292" y="362"/>
      <point x="265" y="389"/>
      <point x="210" y="389" type="curve" smooth="yes"/>
      <point x="187" y="389"/>
      <point x="168" y="386"/>
      <point x="137" y="375" type="curve" smooth="yes"/>
    </contour>
  </outline>
</glyph>
<glyph name="uniA874" format="2">
  <advance width="711"/>
  <unicode hex="A874"/>
  <outline>
    <contour>
      <point x="130" y="-56" type="curve"/>
      <point x="226" y="-56" type="line"/>
      <point x="398" y="145"/>
      <point x="469" y="283"/>
      <point x="469" y="419" type="curve" smooth="yes"/>
      <point x="469" y="564"/>
      <point x="389" y="670"/>
      <point x="251" y="670" type="curve" smooth="yes"/>
      <point x="129" y="670"/>
      <point x="45" y="588"/>
      <point x="45" y="454" type="curve" smooth="yes"/>
      <point x="45" y="355"/>
      <point x="91" y="286"/>
      <point x="185" y="241" type="curve"/>
      <point x="225" y="310" type="line"/>
      <point x="161" y="341"/>
      <point x="123" y="385"/>
      <point x="123" y="457" type="curve" smooth="yes"/>
      <point x="123" y="540"/>
      <point x="173" y="590"/>
      <point x="250" y="590" type="curve" smooth="yes"/>
      <point x="339" y="590"/>
      <point x="391" y="524"/>
      <point x="391" y="416" type="curve" smooth="yes"/>
      <point x="391" y="306"/>
      <point x="337" y="189"/>
    </contour>
    <contour>
      <point x="370" y="-8" type="curve"/>
      <point x="454" y="-8" type="line"/>
      <point x="570" y="122"/>
      <point x="631" y="260"/>
      <point x="631" y="409" type="curve" smooth="yes"/>
      <point x="631" y="498"/>
      <point x="604" y="576"/>
      <point x="564" y="626" type="curve"/>
      <point x="480" y="626" type="line"/>
      <point x="529" y="568"/>
      <point x="553" y="497"/>
      <point x="553" y="409" type="curve" smooth="yes"/>
      <point x="553" y="264"/>
      <point x="503" y="150"/>
    </contour>
  </outline>
</glyph>
<glyph name="uniA875" format="2">
  <advance width="626"/>
  <unicode hex="A875"/>
  <outline>
    <contour>
      <point x="101" y="411" type="curve"/>
      <point x="159" y="460" type="line"/>
      <point x="139" y="479"/>
      <point x="128" y="497"/>
      <point x="128" y="523" type="curve" smooth="yes"/>
      <point x="128" y="571"/>
      <point x="162" y="600"/>
      <point x="215" y="600" type="curve" smooth="yes"/>
      <point x="273" y="600"/>
      <point x="306" y="564"/>
      <point x="306" y="504" type="curve" smooth="yes"/>
      <point x="306" y="456"/>
      <point x="285" y="418"/>
      <point x="247" y="387" type="curve"/>
      <point x="237" y="388"/>
      <point x="226" y="389"/>
      <point x="215" y="389" type="curve" smooth="yes"/>
      <point x="118" y="389"/>
      <point x="50" y="330"/>
      <point x="50" y="231" type="curve" smooth="yes"/>
      <point x="50" y="163"/>
      <point x="82" y="113"/>
      <point x="150" y="83" type="curve"/>
      <point x="190" y="151" type="line"/>
      <point x="146" y="172"/>
      <point x="128" y="195"/>
      <point x="128" y="231" type="curve" smooth="yes"/>
      <point x="128" y="280"/>
      <point x="162" y="309"/>
      <point x="215" y="309" type="curve" smooth="yes"/>
      <point x="273" y="309"/>
      <point x="306" y="274"/>
      <point x="306" y="206" type="curve" smooth="yes"/>
      <point x="306" y="142"/>
      <point x="279" y="85"/>
      <point x="145" y="-66" type="curve"/>
      <point x="241" y="-66" type="line"/>
      <point x="342" y="47"/>
      <point x="384" y="127"/>
      <point x="384" y="214" type="curve" smooth="yes"/>
      <point x="384" y="275"/>
      <point x="361" y="327"/>
      <point x="319" y="358" type="curve"/>
      <point x="362" y="402"/>
      <point x="384" y="456"/>
      <point x="384" y="512" type="curve" smooth="yes"/>
      <point x="384" y="604"/>
      <point x="324" y="680"/>
      <point x="215" y="680" type="curve" smooth="yes"/>
      <point x="118" y="680"/>
      <point x="50" y="619"/>
      <point x="50" y="525" type="curve" smooth="yes"/>
      <point x="50" y="479"/>
      <point x="66" y="444"/>
    </contour>
    <contour>
      <point x="355" y="-33" type="curve"/>
      <point x="439" y="-33" type="line"/>
      <point x="503" y="33"/>
      <point x="546" y="108"/>
      <point x="546" y="207" type="curve" smooth="yes"/>
      <point x="546" y="273"/>
      <point x="519" y="324"/>
      <point x="479" y="358" type="curve"/>
      <point x="519" y="396"/>
      <point x="546" y="442"/>
      <point x="546" y="505" type="curve" smooth="yes"/>
      <point x="546" y="567"/>
      <point x="519" y="615"/>
      <point x="479" y="649" type="curve"/>
      <point x="395" y="649" type="line"/>
      <point x="444" y="612"/>
      <point x="468" y="566"/>
      <point x="468" y="505" type="curve" smooth="yes"/>
      <point x="468" y="443"/>
      <point x="444" y="398"/>
      <point x="395" y="358" type="curve"/>
      <point x="444" y="319"/>
      <point x="468" y="272"/>
      <point x="468" y="207" type="curve" smooth="yes"/>
      <point x="468" y="112"/>
      <point x="425" y="37"/>
    </contour>
  </outline>
</glyph>
<glyph name="uniA876" format="2">
  <advance width="263"/>
  <unicode hex="A876"/>
  <outline>
    <contour>
      <point x="90" y="670" type="line"/>
      <point x="90" y="-56" type="line"/>
      <point x="173" y="-56" type="line"/>
      <point x="173" y="670" type="line"/>
    </contour>
  </outline>
</glyph>
<glyph name="stem" format="2">
  <advance width="190"/>
  <outline>
    <contour>
      <point x="0" y="670" type="line"/>
      <point x="0" y="594" type="line"/>
      <point x="210" y="594" type="line"/>
      <point x="210" y="670" type="line"/>
    </contour>
  </outline>
</glyph>
<glyph name="uniA840.ini.cnt" format="2">
  <advance width="678"/>
  <outline>
    <contour>
      <point x="309" y="62" type="line"/>
      <point x="309" y="-56" type="line"/>
      <point x="383" y="-56" type="line"/>
      <point x="383" y="56" type="line"/>
      <point x="451" y="48"/>
      <point x="511" y="31"/>
      <point x="568" y="4" type="curve"/>
      <point x="568" y="86" type="line"/>
      <point x="482" y="122"/>
      <point x="389" y="138"/>
      <point x="280" y="138" type="curve" smooth="yes"/>
      <point x="144" y="138" type="line"/>
      <point x="144" y="328" type="line"/>
      <point x="195" y="328" type="line" smooth="yes"/>
      <point x="364" y="328"/>
      <point x="524" y="269"/>
      <point x="678" y="269" type="curve" smooth="yes"/>
      <point x="698" y="269" type="line"/>
      <point x="698" y="345" type="line"/>
      <point x="678" y="345" type="line" smooth="yes"/>
      <point x="531" y="345"/>
      <point x="372" y="404"/>
      <point x="195" y="404" type="curve" smooth="yes"/>
      <point x="144" y="404" type="line"/>
      <point x="144" y="594" type="line"/>
      <point x="568" y="594" type="line"/>
      <point x="568" y="670" type="line"/>
      <point x="70" y="670" type="line"/>
      <point x="70" y="-56" type="line"/>
      <point x="144" y="-56" type="line"/>
      <point x="144" y="62" type="line"/>
    </contour>
  </outline>
</glyph>
<glyph name="uniA840.ini" format="2">
  <advance width="728"/>
  <outline>
    <contour>
      <point x="309" y="82" type="line"/>
      <point x="309" y="-56" type="line"/>
      <point x="383" y="-56" type="line"/>
      <point x="383" y="76" type="line"/>
      <point x="451" y="68"/>
      <point x="511" y="51"/>
      <point x="568" y="24" type="curve"/>
      <point x="568" y="106" type="line"/>
      <point x="482" y="142"/>
      <point x="389" y="158"/>
      <point x="280" y="158" type="curve" smooth="yes"/>
      <point x="144" y="158" type="line"/>
      <point x="144" y="338" type="line"/>
      <point x="568" y="338" type="line"/>
      <point x="568" y="414" type="line"/>
      <point x="144" y="414" type="line"/>
      <point x="144" y="594" type="line"/>
      <point x="748" y="594" type="line"/>
      <point x="748" y="670" type="line"/>
      <point x="70" y="670" type="line"/>
      <point x="70" y="-56" type="line"/>
      <point x="144" y="-56" type="line"/>
      <point x="144" y="82" type="line"/>
    </contour>
  </outline>
</glyph>
<glyph name="uniA842.ini" format="2">
  <advance width="784"/>
  <outline>
    <contour>
      <point x="274" y="-56" type="line"/>
      <point x="612" y="-56" type="line"/>
      <point x="593" y="26"/>
      <point x="582" y="115"/>
      <point x="582" y="203" type="curve" smooth="yes"/>
      <point x="582" y="291"/>
      <point x="593" y="380"/>
      <point x="612" y="462" type="curve"/>
      <point x="274" y="462" type="line"/>
      <point x="274" y="241" type="line"/>
      <point x="144" y="241" type="line"/>
      <point x="144" y="594" type="line"/>
      <point x="804" y="594" type="line"/>
      <point x="804" y="670" type="line"/>
      <point x="70" y="670" type="line"/>
      <point x="70" y="-56" type="line"/>
      <point x="144" y="-56" type="line"/>
      <point x="144" y="165" type="line"/>
      <point x="274" y="165" type="line"/>
    </contour>
    <contour>
      <point x="348" y="20" type="line"/>
      <point x="348" y="386" type="line"/>
      <point x="522" y="386" type="line"/>
      <point x="513" y="334"/>
      <point x="508" y="269"/>
      <point x="508" y="203" type="curve" smooth="yes"/>
      <point x="508" y="137"/>
      <point x="513" y="72"/>
      <point x="522" y="20" type="curve"/>
    </contour>
  </outline>
</glyph>
<glyph name="uniA845.ini" format="2">
  <advance width="767"/>
  <outline>
    <contour>
      <point x="70" y="-56" type="line"/>
      <point x="144" y="-56" type="line"/>
      <point x="144" y="269" type="line"/>
      <point x="274" y="269" type="line"/>
      <point x="274" y="-56" type="line"/>
      <point x="621" y="-56" type="line"/>
      <point x="593" y="46"/>
      <point x="582" y="151"/>
      <point x="582" y="264" type="curve" smooth="yes"/>
      <point x="582" y="400"/>
      <point x="596" y="496"/>
      <point x="631" y="594" type="curve"/>
      <point x="787" y="594" type="line"/>
      <point x="787" y="670" type="line"/>
      <point x="274" y="670" type="line"/>
      <point x="274" y="345" type="line"/>
      <point x="144" y="345" type="line"/>
      <point x="144" y="670" type="line"/>
      <point x="70" y="670" type="line"/>
    </contour>
    <contour>
      <point x="348" y="345" type="line"/>
      <point x="348" y="594" type="line"/>
      <point x="552" y="594" type="line"/>
      <point x="528" y="519"/>
      <point x="515" y="438"/>
      <point x="510" y="345" type="curve"/>
    </contour>
    <contour>
      <point x="529" y="20" type="curve"/>
      <point x="348" y="20" type="line"/>
      <point x="348" y="269" type="line"/>
      <point x="508" y="269" type="line"/>
      <point x="508" y="179"/>
      <point x="514" y="99"/>
    </contour>
  </outline>
</glyph>
<glyph name="uniA847.ini.cnt" format="2">
  <advance width="620"/>
  <outline>
    <contour>
      <point x="300" y="594" type="line"/>
      <point x="300" y="269" type="line"/>
      <point x="640" y="269" type="line"/>
      <point x="640" y="345" type="line"/>
      <point x="374" y="345" type="line"/>
      <point x="374" y="594" type="line"/>
      <point x="548" y="594" type="line"/>
      <point x="548" y="670" type="line"/>
      <point x="70" y="670" type="line"/>
      <point x="70" y="-56" type="line"/>
      <point x="548" y="-56" type="line"/>
      <point x="548" y="20" type="line"/>
      <point x="144" y="20" type="line"/>
      <point x="144" y="594" type="line"/>
    </contour>
  </outline>
</glyph>
<glyph name="uniA847.ini" format="2">
  <advance width="708"/>
  <outline>
    <contour>
      <point x="300" y="594" type="line"/>
      <point x="300" y="269" type="line"/>
      <point x="548" y="269" type="line"/>
      <point x="548" y="345" type="line"/>
      <point x="374" y="345" type="line"/>
      <point x="374" y="594" type="line"/>
      <point x="728" y="594" type="line"/>
      <point x="728" y="670" type="line"/>
      <point x="70" y="670" type="line"/>
      <point x="70" y="-56" type="line"/>
      <point x="548" y="-56" type="line"/>
      <point x="548" y="20" type="line"/>
      <point x="144" y="20" type="line"/>
      <point x="144" y="594" type="line"/>
    </contour>
  </outline>
</glyph>
<glyph name="uniA848.ini.cnt" format="2">
  <advance width="718"/>
  <outline>
    <contour>
      <point x="70" y="670" type="line"/>
      <point x="70" y="-56" type="line"/>
      <point x="628" y="-56" type="line"/>
      <point x="628" y="20" type="line"/>
      <point x="144" y="20" type="line"/>
      <point x="144" y="269" type="line"/>
      <point x="738" y="269" type="line"/>
      <point x="738" y="345" type="line"/>
      <point x="356" y="345" type="line"/>
      <point x="325" y="384"/>
      <point x="310" y="432"/>
      <point x="310" y="486" type="curve" smooth="yes"/>
      <point x="310" y="557"/>
      <point x="355" y="595"/>
      <point x="415" y="595" type="curve" smooth="yes"/>
      <point x="467" y="595"/>
      <point x="516" y="576"/>
      <point x="566" y="530" type="curve"/>
      <point x="587" y="572"/>
      <point x="615" y="623"/>
      <point x="641" y="670" type="curve"/>
      <point x="557" y="670" type="line"/>
      <point x="538" y="635" type="line"/>
      <point x="503" y="662"/>
      <point x="464" y="675"/>
      <point x="415" y="675" type="curve" smooth="yes"/>
      <point x="304" y="675"/>
      <point x="232" y="593"/>
      <point x="232" y="486" type="curve" smooth="yes"/>
      <point x="232" y="426"/>
      <point x="243" y="384"/>
      <point x="270" y="345" type="curve"/>
      <point x="144" y="345" type="line"/>
      <point x="144" y="670" type="line"/>
    </contour>
  </outline>
</glyph>
<glyph name="uniA84A.ini" format="2">
  <advance width="594"/>
  <outline>
    <contour>
      <point x="432" y="-56" type="curve"/>
      <point x="404" y="46"/>
      <point x="393" y="151"/>
      <point x="393" y="264" type="curve" smooth="yes"/>
      <point x="393" y="400"/>
      <point x="407" y="496"/>
      <point x="442" y="594" type="curve"/>
      <point x="614" y="594" type="line"/>
      <point x="614" y="670" type="line"/>
      <point x="392" y="670" type="line"/>
      <point x="341" y="553"/>
      <point x="319" y="428"/>
      <point x="319" y="264" type="curve" smooth="yes"/>
      <point x="319" y="183"/>
      <point x="324" y="107"/>
      <point x="337" y="32" type="curve"/>
      <point x="247" y="51"/>
      <point x="186" y="96"/>
      <point x="144" y="154" type="curve"/>
      <point x="144" y="670" type="line"/>
      <point x="70" y="670" type="line"/>
      <point x="70" y="-56" type="line"/>
      <point x="144" y="-56" type="line"/>
      <point x="144" y="57" type="line"/>
      <point x="198" y="-1"/>
      <point x="296" y="-56"/>
    </contour>
  </outline>
</glyph>
<glyph name="uniA84B.ini.cnt" format="2">
  <advance width="711"/>
  <outline>
    <contour>
      <point x="601" y="594" type="curve"/>
      <point x="601" y="670" type="line"/>
      <point x="70" y="670" type="line"/>
      <point x="70" y="-56" type="line"/>
      <point x="144" y="-56" type="line"/>
      <point x="144" y="594" type="line"/>
      <point x="395" y="594" type="line" smooth="yes"/>
      <point x="423" y="594"/>
      <point x="461" y="595"/>
      <point x="490" y="597" type="curve"/>
      <point x="490" y="593" type="line"/>
      <point x="326" y="475"/>
      <point x="225" y="317"/>
      <point x="225" y="153" type="curve" smooth="yes"/>
      <point x="225" y="20"/>
      <point x="298" y="-62"/>
      <point x="414" y="-62" type="curve" smooth="yes"/>
      <point x="545" y="-62"/>
      <point x="601" y="34"/>
      <point x="601" y="146" type="curve" smooth="yes"/>
      <point x="601" y="198"/>
      <point x="585" y="243"/>
      <point x="555" y="282" type="curve"/>
      <point x="556" y="285" type="line"/>
      <point x="598" y="273"/>
      <point x="640" y="269"/>
      <point x="691" y="269" type="curve" smooth="yes"/>
      <point x="731" y="269" type="line"/>
      <point x="731" y="345" type="line"/>
      <point x="691" y="345" type="line" smooth="yes"/>
      <point x="581" y="345"/>
      <point x="497" y="365"/>
      <point x="395" y="408" type="curve"/>
      <point x="442" y="468"/>
      <point x="508" y="529"/>
    </contour>
    <contour>
      <point x="523" y="148" type="curve" smooth="yes"/>
      <point x="523" y="66"/>
      <point x="487" y="18"/>
      <point x="414" y="18" type="curve" smooth="yes"/>
      <point x="345" y="18"/>
      <point x="303" y="66"/>
      <point x="303" y="153" type="curve" smooth="yes"/>
      <point x="303" y="217"/>
      <point x="317" y="279"/>
      <point x="353" y="344" type="curve"/>
      <point x="474" y="301"/>
      <point x="523" y="229"/>
    </contour>
  </outline>
</glyph>
<glyph name="uniA84D.ini" format="2">
  <advance width="823"/>
  <outline>
    <contour>
      <point x="314" y="-56" type="line"/>
      <point x="661" y="-56" type="line"/>
      <point x="633" y="46"/>
      <point x="622" y="151"/>
      <point x="622" y="264" type="curve" smooth="yes"/>
      <point x="622" y="400"/>
      <point x="636" y="496"/>
      <point x="671" y="594" type="curve"/>
      <point x="843" y="594" type="line"/>
      <point x="843" y="670" type="line"/>
      <point x="70" y="670" type="line"/>
      <point x="70" y="-56" type="line"/>
      <point x="144" y="-56" type="line"/>
      <point x="144" y="269" type="line"/>
      <point x="314" y="269" type="line"/>
    </contour>
    <contour>
      <point x="388" y="20" type="line"/>
      <point x="388" y="345" type="line"/>
      <point x="144" y="345" type="line"/>
      <point x="144" y="594" type="line"/>
      <point x="592" y="594" type="line"/>
      <point x="562" y="498"/>
      <point x="548" y="393"/>
      <point x="548" y="264" type="curve" smooth="yes"/>
      <point x="548" y="179"/>
      <point x="553" y="99"/>
      <point x="568" y="20" type="curve"/>
    </contour>
  </outline>
</glyph>
<glyph name="uniA84E.ini" format="2">
  <advance width="823"/>
  <outline>
    <contour>
      <point x="671" y="594" type="curve"/>
      <point x="843" y="594" type="line"/>
      <point x="843" y="670" type="line"/>
      <point x="70" y="670" type="line"/>
      <point x="70" y="-56" type="line"/>
      <point x="144" y="-56" type="line"/>
      <point x="144" y="269" type="line"/>
      <point x="196" y="269" type="line" smooth="yes"/>
      <point x="275" y="269"/>
      <point x="316" y="230"/>
      <point x="316" y="164" type="curve" smooth="yes"/>
      <point x="316" y="143"/>
      <point x="312" y="117"/>
      <point x="312" y="100" type="curve" smooth="yes"/>
      <point x="312" y="-9"/>
      <point x="364" y="-80"/>
      <point x="476" y="-80" type="curve" smooth="yes"/>
      <point x="587" y="-80"/>
      <point x="640" y="-11"/>
      <point x="640" y="104" type="curve" smooth="yes"/>
      <point x="640" y="160"/>
      <point x="624" y="230"/>
      <point x="624" y="294" type="curve" smooth="yes"/>
      <point x="624" y="418"/>
      <point x="640" y="505"/>
    </contour>
    <contour>
      <point x="550" y="294" type="curve" smooth="yes"/>
      <point x="550" y="230"/>
      <point x="566" y="160"/>
      <point x="566" y="104" type="curve" smooth="yes"/>
      <point x="566" y="34"/>
      <point x="536" y="0"/>
      <point x="476" y="0" type="curve" smooth="yes"/>
      <point x="416" y="0"/>
      <point x="386" y="36"/>
      <point x="386" y="100" type="curve" smooth="yes"/>
      <point x="386" y="117"/>
      <point x="390" y="143"/>
      <point x="390" y="164" type="curve" smooth="yes"/>
      <point x="390" y="278"/>
      <point x="324" y="345"/>
      <point x="196" y="345" type="curve" smooth="yes"/>
      <point x="144" y="345" type="line"/>
      <point x="144" y="594" type="line"/>
      <point x="592" y="594" type="line"/>
      <point x="564" y="507"/>
      <point x="550" y="411"/>
    </contour>
  </outline>
</glyph>
<glyph name="uniA850.ini" format="2">
  <advance width="788"/>
  <outline>
    <contour>
      <point x="808" y="670" type="line"/>
      <point x="70" y="670" type="line"/>
      <point x="70" y="-56" type="line"/>
      <point x="144" y="-56" type="line"/>
      <point x="144" y="269" type="line"/>
      <point x="232" y="269" type="line"/>
      <point x="250" y="195"/>
      <point x="309" y="154"/>
      <point x="387" y="154" type="curve" smooth="yes"/>
      <point x="412" y="154"/>
      <point x="438" y="160"/>
      <point x="454" y="171" type="curve"/>
      <point x="427" y="246" type="line"/>
      <point x="415" y="237"/>
      <point x="401" y="234"/>
      <point x="387" y="234" type="curve" smooth="yes"/>
      <point x="333" y="234"/>
      <point x="304" y="262"/>
      <point x="304" y="322" type="curve" smooth="yes"/>
      <point x="304" y="383"/>
      <point x="345" y="432"/>
      <point x="423" y="432" type="curve" smooth="yes"/>
      <point x="513" y="432"/>
      <point x="560" y="362"/>
      <point x="560" y="270" type="curve" smooth="yes"/>
      <point x="560" y="119"/>
      <point x="466" y="20"/>
      <point x="276" y="20" type="curve"/>
      <point x="276" y="-56" type="line"/>
      <point x="509" y="-56"/>
      <point x="638" y="75"/>
      <point x="638" y="270" type="curve" smooth="yes"/>
      <point x="638" y="389"/>
      <point x="577" y="487"/>
      <point x="468" y="508" type="curve"/>
      <point x="468" y="594" type="line"/>
      <point x="808" y="594" type="line"/>
    </contour>
    <contour>
      <point x="227" y="345" type="curve"/>
      <point x="144" y="345" type="line"/>
      <point x="144" y="594" type="line"/>
      <point x="394" y="594" type="line"/>
      <point x="394" y="510" type="line"/>
      <point x="293" y="499"/>
      <point x="235" y="430"/>
    </contour>
  </outline>
</glyph>
<glyph name="uniA851.ini.cnt" format="2">
  <advance width="678"/>
  <outline>
    <contour>
      <point x="578" y="164" type="curve" smooth="yes"/>
      <point x="578" y="206"/>
      <point x="562" y="248"/>
      <point x="535" y="268" type="curve"/>
      <point x="535" y="271" type="line"/>
      <point x="554" y="270"/>
      <point x="587" y="269"/>
      <point x="609" y="269" type="curve" smooth="yes"/>
      <point x="698" y="269" type="line"/>
      <point x="698" y="345" type="line"/>
      <point x="344" y="345" type="line"/>
      <point x="336" y="358"/>
      <point x="331" y="378"/>
      <point x="331" y="401" type="curve" smooth="yes"/>
      <point x="331" y="464"/>
      <point x="363" y="531"/>
      <point x="433" y="594" type="curve"/>
      <point x="568" y="594" type="line"/>
      <point x="568" y="670" type="line"/>
      <point x="70" y="670" type="line"/>
      <point x="70" y="-56" type="line"/>
      <point x="144" y="-56" type="line"/>
      <point x="144" y="594" type="line"/>
      <point x="243" y="594" type="line" smooth="yes"/>
      <point x="271" y="594"/>
      <point x="309" y="594"/>
      <point x="338" y="596" type="curve"/>
      <point x="338" y="593" type="line"/>
      <point x="281" y="532"/>
      <point x="255" y="473"/>
      <point x="255" y="398" type="curve" smooth="yes"/>
      <point x="255" y="347"/>
      <point x="269" y="304"/>
      <point x="292" y="269" type="curve"/>
      <point x="385" y="269" type="line" smooth="yes"/>
      <point x="463" y="269"/>
      <point x="500" y="235"/>
      <point x="500" y="164" type="curve" smooth="yes"/>
      <point x="500" y="79"/>
      <point x="443" y="20"/>
      <point x="313" y="20" type="curve" smooth="yes"/>
      <point x="245" y="20" type="line"/>
      <point x="245" y="-56" type="line"/>
      <point x="313" y="-56" type="line" smooth="yes"/>
      <point x="488" y="-56"/>
      <point x="578" y="28"/>
    </contour>
  </outline>
</glyph>
<glyph name="uniA852.ini" format="2">
  <advance width="833"/>
  <outline>
    <contour>
      <point x="632" y="-56" type="line"/>
      <point x="632" y="270" type="line" smooth="yes"/>
      <point x="632" y="403"/>
      <point x="646" y="498"/>
      <point x="681" y="594" type="curve"/>
      <point x="853" y="594" type="line"/>
      <point x="853" y="670" type="line"/>
      <point x="70" y="670" type="line"/>
      <point x="70" y="-56" type="line"/>
      <point x="144" y="-56" type="line"/>
      <point x="144" y="74" type="line"/>
      <point x="314" y="74" type="line"/>
      <point x="314" y="-56" type="line"/>
      <point x="388" y="-56" type="line"/>
      <point x="388" y="269" type="line"/>
      <point x="558" y="269" type="line"/>
      <point x="558" y="-56" type="line"/>
    </contour>
    <contour>
      <point x="144" y="150" type="line"/>
      <point x="144" y="594" type="line"/>
      <point x="602" y="594" type="line"/>
      <point x="578" y="519"/>
      <point x="564" y="438"/>
      <point x="559" y="345" type="curve"/>
      <point x="314" y="345" type="line"/>
      <point x="314" y="150" type="line"/>
    </contour>
  </outline>
</glyph>
<glyph name="uniA855.ini" format="2">
  <advance width="818"/>
  <outline>
    <contour>
      <point x="581" y="-56" type="curve"/>
      <point x="656" y="-56" type="line"/>
      <point x="628" y="46"/>
      <point x="617" y="151"/>
      <point x="617" y="264" type="curve" smooth="yes"/>
      <point x="617" y="400"/>
      <point x="631" y="496"/>
      <point x="666" y="594" type="curve"/>
      <point x="838" y="594" type="line"/>
      <point x="838" y="670" type="line"/>
      <point x="70" y="670" type="line"/>
      <point x="70" y="-56" type="line"/>
      <point x="144" y="-56" type="line"/>
      <point x="144" y="594" type="line"/>
      <point x="314" y="594" type="line"/>
      <point x="314" y="-56" type="line"/>
      <point x="388" y="-56" type="line"/>
      <point x="388" y="594" type="line"/>
      <point x="587" y="594" type="line"/>
      <point x="557" y="498"/>
      <point x="543" y="393"/>
      <point x="543" y="264" type="curve" smooth="yes"/>
      <point x="543" y="152"/>
      <point x="553" y="47"/>
    </contour>
  </outline>
</glyph>
<glyph name="uniA856.ini" format="2">
  <advance width="824"/>
  <outline>
    <contour>
      <point x="844" y="670" type="line"/>
      <point x="577" y="670" type="line"/>
      <point x="558" y="600"/>
      <point x="548" y="519"/>
      <point x="548" y="430" type="curve" smooth="yes"/>
      <point x="548" y="372"/>
      <point x="553" y="313"/>
      <point x="562" y="267" type="curve"/>
      <point x="388" y="267" type="line"/>
      <point x="388" y="670" type="line"/>
      <point x="70" y="670" type="line"/>
      <point x="70" y="-56" type="line"/>
      <point x="700" y="-56" type="line"/>
      <point x="693" y="-31"/>
      <point x="687" y="-6"/>
      <point x="682" y="20" type="curve"/>
      <point x="144" y="20" type="line"/>
      <point x="144" y="594" type="line"/>
      <point x="314" y="594" type="line"/>
      <point x="314" y="191" type="line"/>
      <point x="652" y="191" type="line"/>
      <point x="633" y="267"/>
      <point x="622" y="348"/>
      <point x="622" y="430" type="curve" smooth="yes"/>
      <point x="622" y="485"/>
      <point x="627" y="540"/>
      <point x="636" y="594" type="curve"/>
      <point x="844" y="594" type="line"/>
    </contour>
  </outline>
</glyph>
<glyph name="uniA857.ini.cnt" format="2">
  <advance width="619"/>
  <outline>
    <contour>
      <point x="316" y="345" type="curve"/>
      <point x="70" y="345" type="line"/>
      <point x="70" y="269" type="line"/>
      <point x="286" y="269" type="line" smooth="yes"/>
      <point x="374" y="269"/>
      <point x="429" y="223"/>
      <point x="429" y="144" type="curve" smooth="yes"/>
      <point x="429" y="64"/>
      <point x="374" y="20"/>
      <point x="286" y="20" type="curve" smooth="yes"/>
      <point x="70" y="20" type="line"/>
      <point x="70" y="-56" type="line"/>
      <point x="286" y="-56" type="line" smooth="yes"/>
      <point x="417" y="-56"/>
      <point x="507" y="23"/>
      <point x="507" y="144" type="curve" smooth="yes"/>
      <point x="507" y="194"/>
      <point x="487" y="239"/>
      <point x="453" y="267" type="curve"/>
      <point x="453" y="271" type="line"/>
      <point x="478" y="270"/>
      <point x="512" y="269"/>
      <point x="545" y="269" type="curve" smooth="yes"/>
      <point x="639" y="269" type="line"/>
      <point x="639" y="345" type="line"/>
      <point x="393" y="345" type="line"/>
      <point x="415" y="434"/>
      <point x="461" y="533"/>
      <point x="572" y="670" type="curve"/>
      <point x="70" y="670" type="line"/>
      <point x="70" y="594" type="line"/>
      <point x="424" y="594" type="line"/>
      <point x="376" y="520"/>
      <point x="339" y="435"/>
    </contour>
  </outline>
</glyph>
<glyph name="uniA857.ini" format="2">
  <advance width="669"/>
  <outline>
    <contour>
      <point x="70" y="-56" type="line"/>
      <point x="286" y="-56" type="line" smooth="yes"/>
      <point x="417" y="-56"/>
      <point x="507" y="23"/>
      <point x="507" y="144" type="curve" smooth="yes"/>
      <point x="507" y="229"/>
      <point x="462" y="295"/>
      <point x="389" y="325" type="curve"/>
      <point x="405" y="402"/>
      <point x="437" y="485"/>
      <point x="514" y="594" type="curve"/>
      <point x="689" y="594" type="line"/>
      <point x="689" y="670" type="line"/>
      <point x="70" y="670" type="line"/>
      <point x="70" y="594" type="line"/>
      <point x="424" y="594" type="line"/>
      <point x="376" y="519"/>
      <point x="338" y="434"/>
      <point x="316" y="343" type="curve"/>
      <point x="306" y="344"/>
      <point x="296" y="345"/>
      <point x="286" y="345" type="curve" smooth="yes"/>
      <point x="70" y="345" type="line"/>
      <point x="70" y="269" type="line"/>
      <point x="286" y="269" type="line" smooth="yes"/>
      <point x="374" y="269"/>
      <point x="429" y="223"/>
      <point x="429" y="144" type="curve" smooth="yes"/>
      <point x="429" y="64"/>
      <point x="374" y="20"/>
      <point x="286" y="20" type="curve" smooth="yes"/>
      <point x="70" y="20" type="line"/>
    </contour>
  </outline>
</glyph>
<glyph name="uniA858.ini" format="2">
  <advance width="594"/>
  <outline>
    <contour>
      <point x="357" y="-56" type="curve"/>
      <point x="432" y="-56" type="line"/>
      <point x="404" y="46"/>
      <point x="393" y="151"/>
      <point x="393" y="264" type="curve" smooth="yes"/>
      <point x="393" y="400"/>
      <point x="407" y="496"/>
      <point x="442" y="594" type="curve"/>
      <point x="614" y="594" type="line"/>
      <point x="614" y="670" type="line"/>
      <point x="392" y="670" type="line"/>
      <point x="349" y="573"/>
      <point x="327" y="470"/>
      <point x="321" y="345" type="curve"/>
      <point x="144" y="345" type="line"/>
      <point x="144" y="670" type="line"/>
      <point x="70" y="670" type="line"/>
      <point x="70" y="-56" type="line"/>
      <point x="144" y="-56" type="line"/>
      <point x="144" y="269" type="line"/>
      <point x="319" y="269" type="line"/>
      <point x="319" y="152"/>
      <point x="329" y="47"/>
    </contour>
  </outline>
</glyph>
<glyph name="uniA85A.ini" format="2">
  <advance width="824"/>
  <outline>
    <contour>
      <point x="144" y="20" type="line"/>
      <point x="144" y="594" type="line"/>
      <point x="844" y="594" type="line"/>
      <point x="844" y="670" type="line"/>
      <point x="70" y="670" type="line"/>
      <point x="70" y="-56" type="line"/>
      <point x="388" y="-56" type="line"/>
      <point x="388" y="347" type="line"/>
      <point x="562" y="347" type="line"/>
      <point x="553" y="301"/>
      <point x="548" y="242"/>
      <point x="548" y="184" type="curve" smooth="yes"/>
      <point x="548" y="95"/>
      <point x="558" y="14"/>
      <point x="577" y="-56" type="curve"/>
      <point x="652" y="-56" type="line"/>
      <point x="633" y="20"/>
      <point x="622" y="102"/>
      <point x="622" y="184" type="curve" smooth="yes"/>
      <point x="622" y="266"/>
      <point x="633" y="347"/>
      <point x="652" y="423" type="curve"/>
      <point x="314" y="423" type="line"/>
      <point x="314" y="20" type="line"/>
    </contour>
  </outline>
</glyph>
<glyph name="uniA85B.ini.cnt" format="2">
  <advance width="613"/>
  <outline>
    <contour>
      <point x="275" y="-16" type="curve"/>
      <point x="416" y="213"/>
      <point x="489" y="269"/>
      <point x="613" y="269" type="curve" smooth="yes"/>
      <point x="633" y="269" type="line"/>
      <point x="633" y="345" type="line"/>
      <point x="613" y="345" type="line" smooth="yes"/>
      <point x="477" y="345"/>
      <point x="372" y="268"/>
      <point x="258" y="91" type="curve"/>
      <point x="219" y="121"/>
      <point x="177" y="159"/>
      <point x="144" y="193" type="curve"/>
      <point x="254" y="346"/>
      <point x="387" y="477"/>
      <point x="533" y="594" type="curve"/>
      <point x="533" y="670" type="line"/>
      <point x="70" y="670" type="line"/>
      <point x="70" y="594" type="line"/>
      <point x="320" y="594" type="line" smooth="yes"/>
      <point x="348" y="594"/>
      <point x="386" y="595"/>
      <point x="415" y="597" type="curve"/>
      <point x="415" y="593" type="line"/>
      <point x="329" y="527"/>
      <point x="224" y="418"/>
      <point x="144" y="319" type="curve"/>
      <point x="144" y="448" type="line"/>
      <point x="70" y="448" type="line"/>
      <point x="70" y="-56" type="line"/>
      <point x="144" y="-56" type="line"/>
      <point x="144" y="91" type="line"/>
      <point x="184" y="54"/>
      <point x="229" y="17"/>
    </contour>
  </outline>
</glyph>
<glyph name="uniA85B.ini" format="2">
  <advance width="693"/>
  <outline>
    <contour>
      <point x="70" y="448" type="line"/>
      <point x="70" y="-56" type="line"/>
      <point x="144" y="-56" type="line"/>
      <point x="144" y="91" type="line"/>
      <point x="184" y="54"/>
      <point x="229" y="17"/>
      <point x="275" y="-16" type="curve"/>
      <point x="357" y="90"/>
      <point x="448" y="187"/>
      <point x="533" y="263" type="curve"/>
      <point x="533" y="360" type="line"/>
      <point x="436" y="277"/>
      <point x="331" y="170"/>
      <point x="264" y="86" type="curve"/>
      <point x="223" y="117"/>
      <point x="179" y="157"/>
      <point x="144" y="193" type="curve"/>
      <point x="254" y="346"/>
      <point x="387" y="477"/>
      <point x="533" y="594" type="curve"/>
      <point x="713" y="594" type="line"/>
      <point x="713" y="670" type="line"/>
      <point x="70" y="670" type="line"/>
      <point x="70" y="594" type="line"/>
      <point x="320" y="594" type="line" smooth="yes"/>
      <point x="348" y="594"/>
      <point x="386" y="595"/>
      <point x="415" y="597" type="curve"/>
      <point x="415" y="593" type="line"/>
      <point x="329" y="527"/>
      <point x="224" y="418"/>
      <point x="144" y="319" type="curve"/>
      <point x="144" y="448" type="line"/>
    </contour>
  </outline>
</glyph>
<glyph name="uniA85C.ini.cnt" format="2">
  <advance width="745"/>
  <outline>
    <contour>
      <point x="765" y="269" type="line"/>
      <point x="765" y="345" type="line"/>
      <point x="745" y="345" type="line" smooth="yes"/>
      <point x="705" y="345"/>
      <point x="676" y="360"/>
      <point x="637" y="454" type="curve" smooth="yes"/>
      <point x="591" y="565"/>
      <point x="526" y="610"/>
      <point x="429" y="610" type="curve" smooth="yes"/>
      <point x="307" y="610"/>
      <point x="232" y="522"/>
      <point x="232" y="412" type="curve" smooth="yes"/>
      <point x="232" y="312"/>
      <point x="288" y="248"/>
      <point x="376" y="201" type="curve"/>
      <point x="356" y="166"/>
      <point x="334" y="123"/>
      <point x="318" y="88" type="curve"/>
      <point x="261" y="118"/>
      <point x="194" y="163"/>
      <point x="144" y="204" type="curve"/>
      <point x="144" y="670" type="line"/>
      <point x="70" y="670" type="line"/>
      <point x="70" y="-56" type="line"/>
      <point x="144" y="-56" type="line"/>
      <point x="144" y="112" type="line"/>
      <point x="205" y="67"/>
      <point x="278" y="23"/>
      <point x="349" y="-12" type="curve"/>
      <point x="384" y="61"/>
      <point x="431" y="152"/>
      <point x="478" y="236" type="curve"/>
      <point x="392" y="273"/>
      <point x="310" y="321"/>
      <point x="310" y="412" type="curve" smooth="yes"/>
      <point x="310" y="488"/>
      <point x="358" y="530"/>
      <point x="429" y="530" type="curve" smooth="yes"/>
      <point x="500" y="530"/>
      <point x="534" y="506"/>
      <point x="571" y="419" type="curve" smooth="yes"/>
      <point x="617" y="311"/>
      <point x="662" y="269"/>
      <point x="745" y="269" type="curve" smooth="yes"/>
    </contour>
  </outline>
</glyph>
<glyph name="uniA85C.ini" format="2">
  <advance width="755"/>
  <outline>
    <contour>
      <point x="775" y="594" type="line"/>
      <point x="775" y="670" type="line"/>
      <point x="745" y="670" type="line" smooth="yes"/>
      <point x="656" y="670"/>
      <point x="596" y="627"/>
      <point x="563" y="569" type="curve"/>
      <point x="527" y="595"/>
      <point x="486" y="610"/>
      <point x="435" y="610" type="curve" smooth="yes"/>
      <point x="310" y="610"/>
      <point x="232" y="522"/>
      <point x="232" y="412" type="curve" smooth="yes"/>
      <point x="232" y="312"/>
      <point x="288" y="248"/>
      <point x="376" y="201" type="curve"/>
      <point x="356" y="166"/>
      <point x="334" y="123"/>
      <point x="318" y="88" type="curve"/>
      <point x="261" y="118"/>
      <point x="194" y="163"/>
      <point x="144" y="204" type="curve"/>
      <point x="144" y="670" type="line"/>
      <point x="70" y="670" type="line"/>
      <point x="70" y="-56" type="line"/>
      <point x="144" y="-56" type="line"/>
      <point x="144" y="112" type="line"/>
      <point x="205" y="67"/>
      <point x="278" y="23"/>
      <point x="349" y="-12" type="curve"/>
      <point x="384" y="61"/>
      <point x="431" y="152"/>
      <point x="478" y="236" type="curve"/>
      <point x="392" y="273"/>
      <point x="310" y="321"/>
      <point x="310" y="412" type="curve" smooth="yes"/>
      <point x="310" y="488"/>
      <point x="361" y="530"/>
      <point x="435" y="530" type="curve" smooth="yes"/>
      <point x="488" y="530"/>
      <point x="536" y="506"/>
      <point x="586" y="456" type="curve"/>
      <point x="597" y="478"/>
      <point x="610" y="502"/>
      <point x="621" y="521" type="curve" smooth="yes"/>
      <point x="652" y="574"/>
      <point x="693" y="594"/>
      <point x="745" y="594" type="curve" smooth="yes"/>
    </contour>
  </outline>
</glyph>
<glyph name="uniA85C.mir" format="2">
  <advance width="720"/>
  <outline>
    <contour>
      <point x="616" y="-56" type="curve"/>
      <point x="700" y="-56" type="line"/>
      <point x="660" y="17"/>
      <point x="610" y="111"/>
      <point x="586" y="158" type="curve"/>
      <point x="536" y="108"/>
      <point x="488" y="84"/>
      <point x="435" y="84" type="curve" smooth="yes"/>
      <point x="361" y="84"/>
      <point x="310" y="126"/>
      <point x="310" y="202" type="curve" smooth="yes"/>
      <point x="310" y="293"/>
      <point x="392" y="341"/>
      <point x="478" y="378" type="curve"/>
      <point x="431" y="462"/>
      <point x="384" y="553"/>
      <point x="349" y="626" type="curve"/>
      <point x="278" y="590"/>
      <point x="205" y="546"/>
      <point x="144" y="502" type="curve"/>
      <point x="144" y="670" type="line"/>
      <point x="70" y="670" type="line"/>
      <point x="70" y="-56" type="line"/>
      <point x="144" y="-56" type="line"/>
      <point x="144" y="410" type="line"/>
      <point x="194" y="450"/>
      <point x="261" y="496"/>
      <point x="318" y="525" type="curve"/>
      <point x="334" y="491"/>
      <point x="356" y="447"/>
      <point x="376" y="413" type="curve"/>
      <point x="288" y="365"/>
      <point x="232" y="301"/>
      <point x="232" y="202" type="curve" smooth="yes"/>
      <point x="232" y="92"/>
      <point x="310" y="4"/>
      <point x="435" y="4" type="curve" smooth="yes"/>
      <point x="486" y="4"/>
      <point x="527" y="19"/>
      <point x="563" y="44" type="curve"/>
      <point x="579" y="12"/>
      <point x="599" y="-24"/>
    </contour>
  </outline>
</glyph>
<glyph name="uniA85C.mir.ini.cnt" format="2">
  <advance width="745"/>
  <outline>
    <contour>
      <point x="765" y="269" type="line"/>
      <point x="765" y="345" type="line"/>
      <point x="745" y="345" type="line" smooth="yes"/>
      <point x="662" y="345"/>
      <point x="617" y="303"/>
      <point x="571" y="195" type="curve" smooth="yes"/>
      <point x="534" y="108"/>
      <point x="500" y="84"/>
      <point x="429" y="84" type="curve" smooth="yes"/>
      <point x="358" y="84"/>
      <point x="310" y="126"/>
      <point x="310" y="202" type="curve" smooth="yes"/>
      <point x="310" y="293"/>
      <point x="392" y="341"/>
      <point x="478" y="378" type="curve"/>
      <point x="431" y="462"/>
      <point x="384" y="553"/>
      <point x="349" y="626" type="curve"/>
      <point x="278" y="590"/>
      <point x="205" y="546"/>
      <point x="144" y="502" type="curve"/>
      <point x="144" y="670" type="line"/>
      <point x="70" y="670" type="line"/>
      <point x="70" y="-56" type="line"/>
      <point x="144" y="-56" type="line"/>
      <point x="144" y="410" type="line"/>
      <point x="194" y="450"/>
      <point x="261" y="496"/>
      <point x="318" y="525" type="curve"/>
      <point x="334" y="491"/>
      <point x="356" y="447"/>
      <point x="376" y="413" type="curve"/>
      <point x="288" y="365"/>
      <point x="232" y="301"/>
      <point x="232" y="202" type="curve" smooth="yes"/>
      <point x="232" y="92"/>
      <point x="307" y="4"/>
      <point x="429" y="4" type="curve" smooth="yes"/>
      <point x="526" y="4"/>
      <point x="591" y="49"/>
      <point x="637" y="160" type="curve" smooth="yes"/>
      <point x="676" y="254"/>
      <point x="705" y="269"/>
      <point x="745" y="269" type="curve" smooth="yes"/>
    </contour>
  </outline>
</glyph>
<glyph name="uniA85C.mir.ini" format="2">
  <advance width="755"/>
  <outline>
    <contour>
      <point x="775" y="-56" type="line"/>
      <point x="775" y="20" type="line"/>
      <point x="745" y="20" type="line" smooth="yes"/>
      <point x="693" y="20"/>
      <point x="652" y="40"/>
      <point x="621" y="93" type="curve" smooth="yes"/>
      <point x="610" y="112"/>
      <point x="597" y="136"/>
      <point x="586" y="158" type="curve"/>
      <point x="536" y="108"/>
      <point x="488" y="84"/>
      <point x="435" y="84" type="curve" smooth="yes"/>
      <point x="361" y="84"/>
      <point x="310" y="126"/>
      <point x="310" y="202" type="curve" smooth="yes"/>
      <point x="310" y="293"/>
      <point x="392" y="341"/>
      <point x="478" y="378" type="curve"/>
      <point x="431" y="462"/>
      <point x="384" y="553"/>
      <point x="349" y="626" type="curve"/>
      <point x="278" y="590"/>
      <point x="205" y="546"/>
      <point x="144" y="502" type="curve"/>
      <point x="144" y="670" type="line"/>
      <point x="70" y="670" type="line"/>
      <point x="70" y="-56" type="line"/>
      <point x="144" y="-56" type="line"/>
      <point x="144" y="410" type="line"/>
      <point x="194" y="450"/>
      <point x="261" y="496"/>
      <point x="318" y="525" type="curve"/>
      <point x="334" y="491"/>
      <point x="356" y="447"/>
      <point x="376" y="413" type="curve"/>
      <point x="288" y="365"/>
      <point x="232" y="301"/>
      <point x="232" y="202" type="curve" smooth="yes"/>
      <point x="232" y="92"/>
      <point x="310" y="4"/>
      <point x="435" y="4" type="curve" smooth="yes"/>
      <point x="486" y="4"/>
      <point x="527" y="19"/>
      <point x="563" y="45" type="curve"/>
      <point x="596" y="-13"/>
      <point x="656" y="-56"/>
      <point x="745" y="-56" type="curve" smooth="yes"/>
    </contour>
  </outline>
</glyph>
<glyph name="uniA85D.ini.cnt" format="2">
  <advance width="641"/>
  <outline>
    <contour>
      <point x="446" y="265" type="curve"/>
      <point x="446" y="269" type="line"/>
      <point x="661" y="269" type="line"/>
      <point x="661" y="345" type="line"/>
      <point x="526" y="345" type="line" smooth="yes"/>
      <point x="382" y="345"/>
      <point x="290" y="299"/>
      <point x="237" y="224" type="curve"/>
      <point x="211" y="243"/>
      <point x="175" y="275"/>
      <point x="151" y="299" type="curve"/>
      <point x="250" y="399"/>
      <point x="382" y="503"/>
      <point x="541" y="594" type="curve"/>
      <point x="541" y="670" type="line"/>
      <point x="70" y="670" type="line"/>
      <point x="70" y="594" type="line"/>
      <point x="314" y="594" type="line" smooth="yes"/>
      <point x="342" y="594"/>
      <point x="380" y="595"/>
      <point x="409" y="597" type="curve"/>
      <point x="409" y="593" type="line"/>
      <point x="331" y="546"/>
      <point x="227" y="469"/>
      <point x="144" y="392" type="curve"/>
      <point x="144" y="470" type="line"/>
      <point x="70" y="470" type="line"/>
      <point x="70" y="132" type="line"/>
      <point x="144" y="132" type="line"/>
      <point x="144" y="208" type="line"/>
      <point x="178" y="178"/>
      <point x="216" y="148"/>
      <point x="252" y="122" type="curve"/>
      <point x="283" y="190"/>
      <point x="328" y="217"/>
      <point x="377" y="217" type="curve" smooth="yes"/>
      <point x="441" y="217"/>
      <point x="471" y="177"/>
      <point x="471" y="124" type="curve" smooth="yes"/>
      <point x="471" y="59"/>
      <point x="425" y="20"/>
      <point x="342" y="20" type="curve" smooth="yes"/>
      <point x="70" y="20" type="line"/>
      <point x="70" y="-56" type="line"/>
      <point x="342" y="-56" type="line" smooth="yes"/>
      <point x="472" y="-56"/>
      <point x="549" y="16"/>
      <point x="549" y="124" type="curve" smooth="yes"/>
      <point x="549" y="193"/>
      <point x="509" y="252"/>
    </contour>
  </outline>
</glyph>
<glyph name="uniA85D.ini" format="2">
  <advance width="701"/>
  <outline>
    <contour>
      <point x="70" y="470" type="line"/>
      <point x="70" y="132" type="line"/>
      <point x="144" y="132" type="line"/>
      <point x="144" y="208" type="line"/>
      <point x="178" y="178"/>
      <point x="216" y="148"/>
      <point x="252" y="122" type="curve"/>
      <point x="283" y="190"/>
      <point x="328" y="217"/>
      <point x="377" y="217" type="curve" smooth="yes"/>
      <point x="441" y="217"/>
      <point x="471" y="177"/>
      <point x="471" y="124" type="curve" smooth="yes"/>
      <point x="471" y="59"/>
      <point x="425" y="20"/>
      <point x="342" y="20" type="curve" smooth="yes"/>
      <point x="70" y="20" type="line"/>
      <point x="70" y="-56" type="line"/>
      <point x="342" y="-56" type="line" smooth="yes"/>
      <point x="472" y="-56"/>
      <point x="549" y="16"/>
      <point x="549" y="124" type="curve" smooth="yes"/>
      <point x="549" y="226"/>
      <point x="473" y="297"/>
      <point x="377" y="297" type="curve" smooth="yes"/>
      <point x="317" y="297"/>
      <point x="266" y="270"/>
      <point x="236" y="224" type="curve"/>
      <point x="211" y="244"/>
      <point x="175" y="276"/>
      <point x="151" y="299" type="curve"/>
      <point x="250" y="399"/>
      <point x="382" y="503"/>
      <point x="541" y="594" type="curve"/>
      <point x="721" y="594" type="line"/>
      <point x="721" y="670" type="line"/>
      <point x="70" y="670" type="line"/>
      <point x="70" y="594" type="line"/>
      <point x="314" y="594" type="line" smooth="yes"/>
      <point x="342" y="594"/>
      <point x="380" y="595"/>
      <point x="409" y="597" type="curve"/>
      <point x="409" y="593" type="line"/>
      <point x="331" y="546"/>
      <point x="227" y="469"/>
      <point x="144" y="392" type="curve"/>
      <point x="144" y="470" type="line"/>
    </contour>
  </outline>
</glyph>
<glyph name="uniA85E.ini.cnt" format="2">
  <advance width="711"/>
  <outline>
    <contour>
      <point x="731" y="345" type="line"/>
      <point x="472" y="345" type="line"/>
      <point x="438" y="281" type="line"/>
      <point x="499" y="251"/>
      <point x="523" y="204"/>
      <point x="523" y="148" type="curve" smooth="yes"/>
      <point x="523" y="66"/>
      <point x="487" y="18"/>
      <point x="414" y="18" type="curve" smooth="yes"/>
      <point x="345" y="18"/>
      <point x="303" y="66"/>
      <point x="303" y="153" type="curve" smooth="yes"/>
      <point x="303" y="295"/>
      <point x="372" y="433"/>
      <point x="601" y="594" type="curve"/>
      <point x="601" y="670" type="line"/>
      <point x="70" y="670" type="line"/>
      <point x="70" y="-56" type="line"/>
      <point x="144" y="-56" type="line"/>
      <point x="144" y="594" type="line"/>
      <point x="395" y="594" type="line" smooth="yes"/>
      <point x="423" y="594"/>
      <point x="461" y="595"/>
      <point x="490" y="597" type="curve"/>
      <point x="490" y="593" type="line"/>
      <point x="326" y="475"/>
      <point x="225" y="317"/>
      <point x="225" y="153" type="curve" smooth="yes"/>
      <point x="225" y="20"/>
      <point x="298" y="-62"/>
      <point x="414" y="-62" type="curve" smooth="yes"/>
      <point x="545" y="-62"/>
      <point x="601" y="34"/>
      <point x="601" y="146" type="curve" smooth="yes"/>
      <point x="601" y="193"/>
      <point x="589" y="234"/>
      <point x="563" y="269" type="curve"/>
      <point x="731" y="269" type="line"/>
    </contour>
  </outline>
</glyph>
<glyph name="uniA85E.ini" format="2">
  <advance width="761"/>
  <outline>
    <contour>
      <point x="781" y="594" type="line"/>
      <point x="781" y="670" type="line"/>
      <point x="70" y="670" type="line"/>
      <point x="70" y="-56" type="line"/>
      <point x="144" y="-56" type="line"/>
      <point x="144" y="594" type="line"/>
      <point x="395" y="594" type="line" smooth="yes"/>
      <point x="423" y="594"/>
      <point x="461" y="595"/>
      <point x="490" y="597" type="curve"/>
      <point x="490" y="593" type="line"/>
      <point x="326" y="475"/>
      <point x="225" y="317"/>
      <point x="225" y="153" type="curve" smooth="yes"/>
      <point x="225" y="20"/>
      <point x="298" y="-62"/>
      <point x="414" y="-62" type="curve" smooth="yes"/>
      <point x="545" y="-62"/>
      <point x="601" y="34"/>
      <point x="601" y="146" type="curve" smooth="yes"/>
      <point x="601" y="238"/>
      <point x="557" y="309"/>
      <point x="474" y="349" type="curve"/>
      <point x="434" y="285" type="line"/>
      <point x="500" y="254"/>
      <point x="523" y="206"/>
      <point x="523" y="148" type="curve" smooth="yes"/>
      <point x="523" y="66"/>
      <point x="487" y="18"/>
      <point x="414" y="18" type="curve" smooth="yes"/>
      <point x="345" y="18"/>
      <point x="303" y="66"/>
      <point x="303" y="153" type="curve" smooth="yes"/>
      <point x="303" y="295"/>
      <point x="372" y="433"/>
      <point x="601" y="594" type="curve"/>
    </contour>
  </outline>
</glyph>
<glyph name="uniA85E.med.cnt" format="2">
  <advance width="486"/>
  <outline>
    <contour>
      <point x="506" y="345" type="line"/>
      <point x="247" y="345" type="line"/>
      <point x="213" y="281" type="line"/>
      <point x="274" y="251"/>
      <point x="298" y="204"/>
      <point x="298" y="148" type="curve" smooth="yes"/>
      <point x="298" y="66"/>
      <point x="262" y="18"/>
      <point x="189" y="18" type="curve" smooth="yes"/>
      <point x="120" y="18"/>
      <point x="78" y="66"/>
      <point x="78" y="153" type="curve" smooth="yes"/>
      <point x="78" y="295"/>
      <point x="147" y="433"/>
      <point x="376" y="594" type="curve"/>
      <point x="376" y="670" type="line"/>
      <point x="0" y="670" type="line"/>
      <point x="0" y="594" type="line"/>
      <point x="170" y="594" type="line" smooth="yes"/>
      <point x="198" y="594"/>
      <point x="236" y="595"/>
      <point x="265" y="597" type="curve"/>
      <point x="265" y="593" type="line"/>
      <point x="101" y="475"/>
      <point x="0" y="317"/>
      <point x="0" y="153" type="curve" smooth="yes"/>
      <point x="0" y="20"/>
      <point x="73" y="-62"/>
      <point x="189" y="-62" type="curve" smooth="yes"/>
      <point x="320" y="-62"/>
      <point x="376" y="34"/>
      <point x="376" y="146" type="curve" smooth="yes"/>
      <point x="376" y="193"/>
      <point x="364" y="234"/>
      <point x="338" y="269" type="curve"/>
      <point x="506" y="269" type="line"/>
    </contour>
  </outline>
</glyph>
<glyph name="uniA85E.mir.ini" format="2">
  <advance width="761"/>
  <outline>
    <contour>
      <point x="781" y="-56" type="line"/>
      <point x="781" y="20" type="line"/>
      <point x="601" y="20" type="line"/>
      <point x="372" y="181"/>
      <point x="303" y="319"/>
      <point x="303" y="461" type="curve" smooth="yes"/>
      <point x="303" y="548"/>
      <point x="345" y="596"/>
      <point x="414" y="596" type="curve" smooth="yes"/>
      <point x="487" y="596"/>
      <point x="523" y="548"/>
      <point x="523" y="466" type="curve" smooth="yes"/>
      <point x="523" y="408"/>
      <point x="500" y="360"/>
      <point x="434" y="329" type="curve"/>
      <point x="474" y="265" type="line"/>
      <point x="557" y="305"/>
      <point x="601" y="376"/>
      <point x="601" y="468" type="curve" smooth="yes"/>
      <point x="601" y="580"/>
      <point x="545" y="676"/>
      <point x="414" y="676" type="curve" smooth="yes"/>
      <point x="298" y="676"/>
      <point x="225" y="594"/>
      <point x="225" y="461" type="curve" smooth="yes"/>
      <point x="225" y="297"/>
      <point x="326" y="139"/>
      <point x="490" y="21" type="curve"/>
      <point x="490" y="17" type="line"/>
      <point x="461" y="19"/>
      <point x="423" y="20"/>
      <point x="395" y="20" type="curve" smooth="yes"/>
      <point x="144" y="20" type="line"/>
      <point x="144" y="670" type="line"/>
      <point x="70" y="670" type="line"/>
      <point x="70" y="-56" type="line"/>
    </contour>
  </outline>
</glyph>
<glyph name="uniA85E.mir.med.cnt" format="2">
  <advance width="486"/>
  <outline>
    <contour>
      <point x="247" y="269" type="line"/>
      <point x="506" y="269" type="line"/>
      <point x="506" y="345" type="line"/>
      <point x="338" y="345" type="line"/>
      <point x="364" y="379"/>
      <point x="376" y="420"/>
      <point x="376" y="468" type="curve" smooth="yes"/>
      <point x="376" y="580"/>
      <point x="320" y="676"/>
      <point x="189" y="676" type="curve" smooth="yes"/>
      <point x="73" y="676"/>
      <point x="0" y="594"/>
      <point x="0" y="461" type="curve" smooth="yes"/>
      <point x="0" y="297"/>
      <point x="101" y="139"/>
      <point x="265" y="21" type="curve"/>
      <point x="265" y="17" type="line"/>
      <point x="236" y="19"/>
      <point x="198" y="20"/>
      <point x="170" y="20" type="curve" smooth="yes"/>
      <point x="0" y="20" type="line"/>
      <point x="0" y="-56" type="line"/>
      <point x="376" y="-56" type="line"/>
      <point x="376" y="20" type="line"/>
      <point x="147" y="181"/>
      <point x="78" y="319"/>
      <point x="78" y="461" type="curve" smooth="yes"/>
      <point x="78" y="548"/>
      <point x="120" y="596"/>
      <point x="189" y="596" type="curve" smooth="yes"/>
      <point x="262" y="596"/>
      <point x="298" y="548"/>
      <point x="298" y="466" type="curve" smooth="yes"/>
      <point x="298" y="410"/>
      <point x="274" y="363"/>
      <point x="213" y="333" type="curve"/>
    </contour>
  </outline>
</glyph>
<glyph name="uniA85E.mir.med" format="2">
  <advance width="536"/>
  <outline>
    <contour>
      <point x="0" y="20" type="line"/>
      <point x="0" y="-56" type="line"/>
      <point x="556" y="-56" type="line"/>
      <point x="556" y="20" type="line"/>
      <point x="376" y="20" type="line"/>
      <point x="147" y="181"/>
      <point x="78" y="319"/>
      <point x="78" y="461" type="curve" smooth="yes"/>
      <point x="78" y="548"/>
      <point x="120" y="596"/>
      <point x="189" y="596" type="curve" smooth="yes"/>
      <point x="262" y="596"/>
      <point x="298" y="548"/>
      <point x="298" y="466" type="curve" smooth="yes"/>
      <point x="298" y="408"/>
      <point x="275" y="360"/>
      <point x="209" y="329" type="curve"/>
      <point x="249" y="265" type="line"/>
      <point x="332" y="305"/>
      <point x="376" y="376"/>
      <point x="376" y="468" type="curve" smooth="yes"/>
      <point x="376" y="580"/>
      <point x="320" y="676"/>
      <point x="189" y="676" type="curve" smooth="yes"/>
      <point x="73" y="676"/>
      <point x="0" y="594"/>
      <point x="0" y="461" type="curve" smooth="yes"/>
      <point x="0" y="297"/>
      <point x="101" y="139"/>
      <point x="265" y="21" type="curve"/>
      <point x="265" y="17" type="line"/>
      <point x="236" y="19"/>
      <point x="198" y="20"/>
      <point x="170" y="20" type="curve" smooth="yes"/>
    </contour>
  </outline>
</glyph>
<glyph name="uniA85E.str.fin" format="2">
  <advance width="446"/>
  <outline>
    <contour>
      <point x="0" y="345" type="line"/>
      <point x="0" y="269" type="line"/>
      <point x="17" y="269" type="line"/>
      <point x="6" y="231"/>
      <point x="0" y="192"/>
      <point x="0" y="153" type="curve" smooth="yes"/>
      <point x="0" y="20"/>
      <point x="73" y="-62"/>
      <point x="189" y="-62" type="curve" smooth="yes"/>
      <point x="320" y="-62"/>
      <point x="376" y="34"/>
      <point x="376" y="146" type="curve" smooth="yes"/>
      <point x="376" y="238"/>
      <point x="332" y="309"/>
      <point x="249" y="349" type="curve"/>
      <point x="209" y="285" type="line"/>
      <point x="275" y="254"/>
      <point x="298" y="206"/>
      <point x="298" y="148" type="curve" smooth="yes"/>
      <point x="298" y="66"/>
      <point x="262" y="18"/>
      <point x="189" y="18" type="curve" smooth="yes"/>
      <point x="120" y="18"/>
      <point x="78" y="66"/>
      <point x="78" y="153" type="curve" smooth="yes"/>
      <point x="78" y="295"/>
      <point x="147" y="433"/>
      <point x="376" y="594" type="curve"/>
      <point x="376" y="670" type="line"/>
      <point x="0" y="670" type="line"/>
      <point x="0" y="594" type="line"/>
      <point x="170" y="594" type="line" smooth="yes"/>
      <point x="198" y="594"/>
      <point x="236" y="595"/>
      <point x="265" y="597" type="curve"/>
      <point x="265" y="593" type="line"/>
      <point x="167" y="522"/>
      <point x="91" y="437"/>
      <point x="46" y="345" type="curve"/>
    </contour>
  </outline>
</glyph>
<glyph name="uniA85E.str.med.cnt" format="2">
  <advance width="486"/>
  <outline>
    <contour>
      <point x="0" y="345" type="line"/>
      <point x="0" y="269" type="line"/>
      <point x="17" y="269" type="line"/>
      <point x="6" y="231"/>
      <point x="0" y="192"/>
      <point x="0" y="153" type="curve" smooth="yes"/>
      <point x="0" y="20"/>
      <point x="73" y="-62"/>
      <point x="189" y="-62" type="curve" smooth="yes"/>
      <point x="320" y="-62"/>
      <point x="376" y="34"/>
      <point x="376" y="146" type="curve" smooth="yes"/>
      <point x="376" y="193"/>
      <point x="364" y="234"/>
      <point x="338" y="269" type="curve"/>
      <point x="506" y="269" type="line"/>
      <point x="506" y="345" type="line"/>
      <point x="247" y="345" type="line"/>
      <point x="213" y="281" type="line"/>
      <point x="274" y="251"/>
      <point x="298" y="204"/>
      <point x="298" y="148" type="curve" smooth="yes"/>
      <point x="298" y="66"/>
      <point x="262" y="18"/>
      <point x="189" y="18" type="curve" smooth="yes"/>
      <point x="120" y="18"/>
      <point x="78" y="66"/>
      <point x="78" y="153" type="curve" smooth="yes"/>
      <point x="78" y="295"/>
      <point x="147" y="433"/>
      <point x="376" y="594" type="curve"/>
      <point x="376" y="670" type="line"/>
      <point x="0" y="670" type="line"/>
      <point x="0" y="594" type="line"/>
      <point x="170" y="594" type="line" smooth="yes"/>
      <point x="198" y="594"/>
      <point x="236" y="595"/>
      <point x="265" y="597" type="curve"/>
      <point x="265" y="593" type="line"/>
      <point x="167" y="522"/>
      <point x="91" y="437"/>
      <point x="46" y="345" type="curve"/>
    </contour>
  </outline>
</glyph>
<glyph name="uniA85F.med.cnt" format="2">
  <advance width="562"/>
  <outline>
    <contour>
      <point x="285" y="327" type="curve"/>
      <point x="209" y="312" type="line"/>
      <point x="211" y="305"/>
      <point x="212" y="296"/>
      <point x="212" y="287" type="curve" smooth="yes"/>
      <point x="212" y="247"/>
      <point x="189" y="219"/>
      <point x="145" y="219" type="curve" smooth="yes"/>
      <point x="100" y="219"/>
      <point x="68" y="251"/>
      <point x="68" y="312" type="curve" smooth="yes"/>
      <point x="68" y="391"/>
      <point x="119" y="452"/>
      <point x="217" y="452" type="curve" smooth="yes"/>
      <point x="325" y="452"/>
      <point x="384" y="378"/>
      <point x="384" y="280" type="curve" smooth="yes"/>
      <point x="384" y="123"/>
      <point x="284" y="20"/>
      <point x="80" y="20" type="curve"/>
      <point x="80" y="-56" type="line"/>
      <point x="320" y="-56"/>
      <point x="456" y="74"/>
      <point x="461" y="269" type="curve"/>
      <point x="582" y="269" type="line"/>
      <point x="582" y="345" type="line"/>
      <point x="455" y="345" type="line"/>
      <point x="431" y="452"/>
      <point x="347" y="532"/>
      <point x="217" y="532" type="curve" smooth="yes"/>
      <point x="68" y="532"/>
      <point x="-10" y="432"/>
      <point x="-10" y="312" type="curve" smooth="yes"/>
      <point x="-10" y="201"/>
      <point x="53" y="139"/>
      <point x="145" y="139" type="curve" smooth="yes"/>
      <point x="235" y="139"/>
      <point x="290" y="205"/>
      <point x="290" y="287" type="curve" smooth="yes"/>
      <point x="290" y="301"/>
      <point x="288" y="316"/>
    </contour>
    <contour>
      <point x="0" y="670" type="line"/>
      <point x="0" y="594" type="line"/>
      <point x="452" y="594" type="line"/>
      <point x="452" y="670" type="line"/>
    </contour>
  </outline>
</glyph>
<glyph name="uniA85F.med" format="2">
  <advance width="558"/>
  <outline>
    <contour>
      <point x="285" y="327" type="curve"/>
      <point x="209" y="312" type="line"/>
      <point x="211" y="305"/>
      <point x="212" y="296"/>
      <point x="212" y="287" type="curve" smooth="yes"/>
      <point x="212" y="247"/>
      <point x="189" y="219"/>
      <point x="145" y="219" type="curve" smooth="yes"/>
      <point x="100" y="219"/>
      <point x="68" y="251"/>
      <point x="68" y="312" type="curve" smooth="yes"/>
      <point x="68" y="391"/>
      <point x="119" y="452"/>
      <point x="217" y="452" type="curve" smooth="yes"/>
      <point x="325" y="452"/>
      <point x="384" y="378"/>
      <point x="384" y="280" type="curve" smooth="yes"/>
      <point x="384" y="123"/>
      <point x="284" y="20"/>
      <point x="80" y="20" type="curve"/>
      <point x="80" y="-56" type="line"/>
      <point x="325" y="-56"/>
      <point x="462" y="79"/>
      <point x="462" y="280" type="curve" smooth="yes"/>
      <point x="462" y="418"/>
      <point x="372" y="532"/>
      <point x="217" y="532" type="curve" smooth="yes"/>
      <point x="68" y="532"/>
      <point x="-10" y="432"/>
      <point x="-10" y="312" type="curve" smooth="yes"/>
      <point x="-10" y="201"/>
      <point x="53" y="139"/>
      <point x="145" y="139" type="curve" smooth="yes"/>
      <point x="235" y="139"/>
      <point x="290" y="205"/>
      <point x="290" y="287" type="curve" smooth="yes"/>
      <point x="290" y="301"/>
      <point x="288" y="316"/>
    </contour>
    <contour>
      <point x="0" y="670" type="line"/>
      <point x="0" y="594" type="line"/>
      <point x="578" y="594" type="line"/>
      <point x="578" y="670" type="line"/>
    </contour>
  </outline>
</glyph>
<glyph name="uniA85F.mir" format="2">
  <advance width="842"/>
  <outline>
    <contour>
      <point x="70" y="-56" type="line"/>
      <point x="144" y="-56" type="line"/>
      <point x="144" y="269" type="line"/>
      <point x="241" y="269" type="line"/>
      <point x="240" y="260"/>
      <point x="240" y="250"/>
      <point x="240" y="239" type="curve" smooth="yes"/>
      <point x="240" y="74"/>
      <point x="338" y="-63"/>
      <point x="511" y="-63" type="curve" smooth="yes"/>
      <point x="696" y="-63"/>
      <point x="802" y="94"/>
      <point x="802" y="279" type="curve" smooth="yes"/>
      <point x="802" y="528"/>
      <point x="648" y="670"/>
      <point x="386" y="670" type="curve"/>
      <point x="386" y="594" type="line"/>
      <point x="608" y="594"/>
      <point x="724" y="473"/>
      <point x="724" y="279" type="curve" smooth="yes"/>
      <point x="724" y="129"/>
      <point x="648" y="17"/>
      <point x="511" y="17" type="curve" smooth="yes"/>
      <point x="388" y="17"/>
      <point x="318" y="113"/>
      <point x="318" y="239" type="curve" smooth="yes"/>
      <point x="318" y="344"/>
      <point x="363" y="392"/>
      <point x="427" y="392" type="curve" smooth="yes"/>
      <point x="482" y="392"/>
      <point x="521" y="356"/>
      <point x="521" y="295" type="curve" smooth="yes"/>
      <point x="521" y="258"/>
      <point x="506" y="216"/>
      <point x="479" y="190" type="curve"/>
      <point x="542" y="141" type="line"/>
      <point x="580" y="180"/>
      <point x="599" y="230"/>
      <point x="599" y="295" type="curve" smooth="yes"/>
      <point x="599" y="394"/>
      <point x="531" y="472"/>
      <point x="427" y="472" type="curve" smooth="yes"/>
      <point x="348" y="472"/>
      <point x="285" y="426"/>
      <point x="256" y="345" type="curve"/>
      <point x="144" y="345" type="line"/>
      <point x="144" y="670" type="line"/>
      <point x="70" y="670" type="line"/>
    </contour>
  </outline>
</glyph>
<glyph name="uniA85F.mir.med" format="2">
  <advance width="558"/>
  <outline>
    <contour>
      <point x="209" y="302" type="curve"/>
      <point x="285" y="287" type="line"/>
      <point x="288" y="298"/>
      <point x="290" y="313"/>
      <point x="290" y="327" type="curve" smooth="yes"/>
      <point x="290" y="409"/>
      <point x="235" y="475"/>
      <point x="145" y="475" type="curve" smooth="yes"/>
      <point x="53" y="475"/>
      <point x="-10" y="413"/>
      <point x="-10" y="302" type="curve" smooth="yes"/>
      <point x="-10" y="182"/>
      <point x="68" y="82"/>
      <point x="217" y="82" type="curve" smooth="yes"/>
      <point x="372" y="82"/>
      <point x="462" y="196"/>
      <point x="462" y="334" type="curve" smooth="yes"/>
      <point x="462" y="535"/>
      <point x="325" y="670"/>
      <point x="80" y="670" type="curve"/>
      <point x="80" y="594" type="line"/>
      <point x="284" y="594"/>
      <point x="384" y="491"/>
      <point x="384" y="334" type="curve" smooth="yes"/>
      <point x="384" y="236"/>
      <point x="325" y="162"/>
      <point x="217" y="162" type="curve" smooth="yes"/>
      <point x="119" y="162"/>
      <point x="68" y="223"/>
      <point x="68" y="302" type="curve" smooth="yes"/>
      <point x="68" y="363"/>
      <point x="100" y="395"/>
      <point x="145" y="395" type="curve" smooth="yes"/>
      <point x="189" y="395"/>
      <point x="212" y="367"/>
      <point x="212" y="327" type="curve" smooth="yes"/>
      <point x="212" y="318"/>
      <point x="211" y="309"/>
    </contour>
    <contour>
      <point x="0" y="20" type="line"/>
      <point x="0" y="-56" type="line"/>
      <point x="578" y="-56" type="line"/>
      <point x="578" y="20" type="line"/>
    </contour>
  </outline>
</glyph>
<glyph name="uniA860.ini.cnt" format="2">
  <advance width="754"/>
  <outline>
    <contour>
      <point x="774" y="269" type="line"/>
      <point x="774" y="345" type="line"/>
      <point x="754" y="345" type="line" smooth="yes"/>
      <point x="572" y="345"/>
      <point x="463" y="275"/>
      <point x="389" y="25" type="curve"/>
      <point x="385" y="25" type="line"/>
      <point x="387" y="58"/>
      <point x="388" y="98"/>
      <point x="388" y="135" type="curve" smooth="yes"/>
      <point x="388" y="594" type="line"/>
      <point x="660" y="594" type="line"/>
      <point x="660" y="670" type="line"/>
      <point x="70" y="670" type="line"/>
      <point x="70" y="-56" type="line"/>
      <point x="144" y="-56" type="line"/>
      <point x="144" y="594" type="line"/>
      <point x="314" y="594" type="line"/>
      <point x="314" y="-56" type="line"/>
      <point x="436" y="-56" type="line"/>
      <point x="513" y="216"/>
      <point x="585" y="269"/>
      <point x="754" y="269" type="curve" smooth="yes"/>
    </contour>
  </outline>
</glyph>
<glyph name="uniA860.ini" format="2">
  <advance width="820"/>
  <outline>
    <contour>
      <point x="652" y="386" type="curve"/>
      <point x="559" y="386" type="line"/>
      <point x="482" y="271"/>
      <point x="427" y="151"/>
      <point x="389" y="25" type="curve"/>
      <point x="385" y="25" type="line"/>
      <point x="387" y="58"/>
      <point x="388" y="98"/>
      <point x="388" y="135" type="curve" smooth="yes"/>
      <point x="388" y="594" type="line"/>
      <point x="840" y="594" type="line"/>
      <point x="840" y="670" type="line"/>
      <point x="70" y="670" type="line"/>
      <point x="70" y="-56" type="line"/>
      <point x="144" y="-56" type="line"/>
      <point x="144" y="594" type="line"/>
      <point x="314" y="594" type="line"/>
      <point x="314" y="-56" type="line"/>
      <point x="436" y="-56" type="line"/>
      <point x="483" y="100"/>
      <point x="555" y="257"/>
    </contour>
  </outline>
</glyph>
<glyph name="uniA860.med.cnt" format="2">
  <advance width="440"/>
  <outline>
    <contour>
      <point x="460" y="269" type="line"/>
      <point x="460" y="345" type="line"/>
      <point x="440" y="345" type="line" smooth="yes"/>
      <point x="258" y="345"/>
      <point x="149" y="275"/>
      <point x="75" y="25" type="curve"/>
      <point x="71" y="25" type="line"/>
      <point x="73" y="58"/>
      <point x="74" y="98"/>
      <point x="74" y="135" type="curve" smooth="yes"/>
      <point x="74" y="594" type="line"/>
      <point x="346" y="594" type="line"/>
      <point x="346" y="670" type="line"/>
      <point x="0" y="670" type="line"/>
      <point x="0" y="-56" type="line"/>
      <point x="122" y="-56" type="line"/>
      <point x="199" y="216"/>
      <point x="271" y="269"/>
      <point x="440" y="269" type="curve" smooth="yes"/>
    </contour>
  </outline>
</glyph>
<glyph name="uniA860.med" format="2">
  <advance width="510"/>
  <outline>
    <contour>
      <point x="338" y="386" type="curve"/>
      <point x="245" y="386" type="line"/>
      <point x="168" y="271"/>
      <point x="113" y="151"/>
      <point x="75" y="25" type="curve"/>
      <point x="71" y="25" type="line"/>
      <point x="73" y="58"/>
      <point x="74" y="98"/>
      <point x="74" y="135" type="curve" smooth="yes"/>
      <point x="74" y="594" type="line"/>
      <point x="530" y="594" type="line"/>
      <point x="530" y="670" type="line"/>
      <point x="0" y="670" type="line"/>
      <point x="0" y="-56" type="line"/>
      <point x="122" y="-56" type="line"/>
      <point x="169" y="100"/>
      <point x="241" y="257"/>
    </contour>
  </outline>
</glyph>
<glyph name="uniA860.mir.fin" format="2">
  <advance width="420"/>
  <outline>
    <contour>
      <point x="245" y="228" type="curve"/>
      <point x="338" y="228" type="line"/>
      <point x="241" y="357"/>
      <point x="169" y="514"/>
      <point x="122" y="670" type="curve"/>
      <point x="0" y="670" type="line"/>
      <point x="0" y="-56" type="line"/>
      <point x="350" y="-56" type="line"/>
      <point x="350" y="20" type="line"/>
      <point x="74" y="20" type="line"/>
      <point x="74" y="479" type="line" smooth="yes"/>
      <point x="74" y="516"/>
      <point x="73" y="556"/>
      <point x="71" y="589" type="curve"/>
      <point x="75" y="589" type="line"/>
      <point x="113" y="463"/>
      <point x="168" y="343"/>
    </contour>
  </outline>
</glyph>
<glyph name="uniA860.mir.ini" format="2">
  <advance width="820"/>
  <outline>
    <contour>
      <point x="559" y="228" type="curve"/>
      <point x="652" y="228" type="line"/>
      <point x="555" y="357"/>
      <point x="483" y="514"/>
      <point x="436" y="670" type="curve"/>
      <point x="314" y="670" type="line"/>
      <point x="314" y="20" type="line"/>
      <point x="144" y="20" type="line"/>
      <point x="144" y="670" type="line"/>
      <point x="70" y="670" type="line"/>
      <point x="70" y="-56" type="line"/>
      <point x="840" y="-56" type="line"/>
      <point x="840" y="20" type="line"/>
      <point x="388" y="20" type="line"/>
      <point x="388" y="479" type="line" smooth="yes"/>
      <point x="388" y="516"/>
      <point x="387" y="556"/>
      <point x="385" y="589" type="curve"/>
      <point x="389" y="589" type="line"/>
      <point x="427" y="463"/>
      <point x="482" y="343"/>
    </contour>
  </outline>
</glyph>
<glyph name="uniA860.mir.med.cnt" format="2">
  <advance width="440"/>
  <outline>
    <contour>
      <point x="460" y="269" type="line"/>
      <point x="460" y="345" type="line"/>
      <point x="440" y="345" type="line" smooth="yes"/>
      <point x="271" y="345"/>
      <point x="199" y="398"/>
      <point x="122" y="670" type="curve"/>
      <point x="0" y="670" type="line"/>
      <point x="0" y="-56" type="line"/>
      <point x="346" y="-56" type="line"/>
      <point x="346" y="20" type="line"/>
      <point x="74" y="20" type="line"/>
      <point x="74" y="479" type="line" smooth="yes"/>
      <point x="74" y="516"/>
      <point x="73" y="556"/>
      <point x="71" y="589" type="curve"/>
      <point x="75" y="589" type="line"/>
      <point x="149" y="339"/>
      <point x="258" y="269"/>
      <point x="440" y="269" type="curve" smooth="yes"/>
    </contour>
  </outline>
</glyph>
<glyph name="uniA861.fin" format="2">
  <advance width="337"/>
  <outline>
    <contour>
      <point x="61" y="307" type="curve"/>
      <point x="167" y="406"/>
      <point x="246" y="530"/>
      <point x="297" y="670" type="curve"/>
      <point x="217" y="670" type="line"/>
      <point x="169" y="546"/>
      <point x="102" y="445"/>
      <point x="0" y="345" type="curve"/>
      <point x="0" y="269" type="line"/>
      <point x="102" y="169"/>
      <point x="169" y="68"/>
      <point x="217" y="-56" type="curve"/>
      <point x="297" y="-56" type="line"/>
      <point x="246" y="84"/>
      <point x="167" y="208"/>
    </contour>
  </outline>
</glyph>
<glyph name="uniA861.ini" format="2">
  <advance width="553"/>
  <outline>
    <contour>
      <point x="144" y="670" type="line"/>
      <point x="70" y="670" type="line"/>
      <point x="70" y="-56" type="line"/>
      <point x="144" y="-56" type="line"/>
      <point x="144" y="227" type="line"/>
      <point x="224" y="140"/>
      <point x="279" y="51"/>
      <point x="321" y="-56" type="curve"/>
      <point x="401" y="-56" type="line"/>
      <point x="357" y="66"/>
      <point x="291" y="175"/>
      <point x="205" y="267" type="curve"/>
      <point x="205" y="271" type="line"/>
      <point x="236" y="270"/>
      <point x="269" y="269"/>
      <point x="299" y="269" type="curve" smooth="yes"/>
      <point x="573" y="269" type="line"/>
      <point x="573" y="345" type="line"/>
      <point x="299" y="345" type="line" smooth="yes"/>
      <point x="269" y="345"/>
      <point x="236" y="344"/>
      <point x="205" y="343" type="curve"/>
      <point x="205" y="347" type="line"/>
      <point x="291" y="438"/>
      <point x="357" y="548"/>
      <point x="401" y="670" type="curve"/>
      <point x="321" y="670" type="line"/>
      <point x="279" y="563"/>
      <point x="224" y="473"/>
      <point x="144" y="386" type="curve"/>
    </contour>
  </outline>
</glyph>
<glyph name="uniA861.med" format="2">
  <advance width="449"/>
  <outline>
    <contour>
      <point x="469" y="269" type="line"/>
      <point x="469" y="345" type="line"/>
      <point x="195" y="345" type="line" smooth="yes"/>
      <point x="165" y="345"/>
      <point x="132" y="344"/>
      <point x="101" y="343" type="curve"/>
      <point x="101" y="347" type="line"/>
      <point x="187" y="438"/>
      <point x="253" y="548"/>
      <point x="297" y="670" type="curve"/>
      <point x="217" y="670" type="line"/>
      <point x="169" y="546"/>
      <point x="102" y="445"/>
      <point x="0" y="345" type="curve"/>
      <point x="0" y="269" type="line"/>
      <point x="102" y="169"/>
      <point x="169" y="68"/>
      <point x="217" y="-56" type="curve"/>
      <point x="297" y="-56" type="line"/>
      <point x="253" y="66"/>
      <point x="187" y="176"/>
      <point x="101" y="267" type="curve"/>
      <point x="101" y="271" type="line"/>
      <point x="132" y="270"/>
      <point x="165" y="269"/>
      <point x="195" y="269" type="curve" smooth="yes"/>
    </contour>
  </outline>
</glyph>
<glyph name="uniA862.ini.cnt" format="2">
  <advance width="688"/>
  <outline>
    <contour>
      <point x="578" y="594" type="curve"/>
      <point x="578" y="670" type="line"/>
      <point x="70" y="670" type="line"/>
      <point x="70" y="-56" type="line"/>
      <point x="578" y="-56" type="line"/>
      <point x="578" y="20" type="line"/>
      <point x="144" y="20" type="line"/>
      <point x="144" y="321" type="line"/>
      <point x="213" y="283"/>
      <point x="297" y="269"/>
      <point x="404" y="269" type="curve" smooth="yes"/>
      <point x="708" y="269" type="line"/>
      <point x="708" y="345" type="line"/>
      <point x="425" y="345" type="line"/>
      <point x="458" y="442"/>
      <point x="510" y="525"/>
    </contour>
    <contour>
      <point x="144" y="405" type="curve"/>
      <point x="144" y="594" type="line"/>
      <point x="386" y="594" type="line" smooth="yes"/>
      <point x="421" y="594"/>
      <point x="460" y="595"/>
      <point x="489" y="596" type="curve"/>
      <point x="489" y="592" type="line"/>
      <point x="422" y="523"/>
      <point x="371" y="430"/>
      <point x="350" y="346" type="curve"/>
      <point x="266" y="349"/>
      <point x="208" y="363"/>
    </contour>
  </outline>
</glyph>
<glyph name="uniA862.ini" format="2">
  <advance width="738"/>
  <outline>
    <contour>
      <point x="758" y="594" type="line"/>
      <point x="758" y="670" type="line"/>
      <point x="70" y="670" type="line"/>
      <point x="70" y="-56" type="line"/>
      <point x="578" y="-56" type="line"/>
      <point x="578" y="20" type="line"/>
      <point x="144" y="20" type="line"/>
      <point x="144" y="291" type="line"/>
      <point x="213" y="253"/>
      <point x="297" y="239"/>
      <point x="404" y="239" type="curve"/>
      <point x="434" y="382"/>
      <point x="493" y="499"/>
      <point x="578" y="594" type="curve"/>
    </contour>
    <contour>
      <point x="144" y="375" type="curve"/>
      <point x="144" y="594" type="line"/>
      <point x="386" y="594" type="line" smooth="yes"/>
      <point x="421" y="594"/>
      <point x="460" y="595"/>
      <point x="489" y="596" type="curve"/>
      <point x="489" y="592" type="line"/>
      <point x="422" y="514"/>
      <point x="371" y="409"/>
      <point x="350" y="316" type="curve"/>
      <point x="266" y="319"/>
      <point x="208" y="333"/>
    </contour>
  </outline>
</glyph>
<glyph name="uniA863.ini" format="2">
  <advance width="798"/>
  <outline>
    <contour>
      <point x="70" y="670" type="line"/>
      <point x="70" y="-56" type="line"/>
      <point x="668" y="-56" type="line"/>
      <point x="661" y="-31"/>
      <point x="655" y="-6"/>
      <point x="650" y="20" type="curve"/>
      <point x="144" y="20" type="line"/>
      <point x="144" y="286" type="line"/>
      <point x="190" y="235"/>
      <point x="270" y="195"/>
      <point x="378" y="174" type="curve"/>
      <point x="378" y="249" type="line"/>
      <point x="428" y="204"/>
      <point x="511" y="165"/>
      <point x="622" y="164" type="curve"/>
      <point x="617" y="202"/>
      <point x="615" y="235"/>
      <point x="615" y="274" type="curve" smooth="yes"/>
      <point x="615" y="406"/>
      <point x="628" y="499"/>
      <point x="662" y="594" type="curve"/>
      <point x="818" y="594" type="line"/>
      <point x="818" y="670" type="line"/>
    </contour>
    <contour>
      <point x="378" y="342" type="curve"/>
      <point x="378" y="594" type="line"/>
      <point x="583" y="594" type="line"/>
      <point x="554" y="501"/>
      <point x="541" y="399"/>
      <point x="541" y="274" type="curve" smooth="yes"/>
      <point x="541" y="250" type="line"/>
      <point x="467" y="264"/>
      <point x="415" y="298"/>
    </contour>
    <contour>
      <point x="144" y="386" type="curve"/>
      <point x="144" y="594" type="line"/>
      <point x="304" y="594" type="line"/>
      <point x="304" y="271" type="line"/>
      <point x="234" y="292"/>
      <point x="182" y="330"/>
    </contour>
  </outline>
</glyph>
<glyph name="uniA864.ini" format="2">
  <advance width="1054"/>
  <outline>
    <contour>
      <point x="720" y="-56" type="curve"/>
      <point x="842" y="-56" type="line"/>
      <point x="836" y="-16"/>
      <point x="833" y="35"/>
      <point x="833" y="84" type="curve" smooth="yes"/>
      <point x="833" y="276"/>
      <point x="863" y="437"/>
      <point x="931" y="594" type="curve"/>
      <point x="1074" y="594" type="line"/>
      <point x="1074" y="670" type="line"/>
      <point x="851" y="670" type="line" smooth="yes"/>
      <point x="702" y="670"/>
      <point x="608" y="642"/>
      <point x="516" y="566" type="curve"/>
      <point x="483" y="590"/>
      <point x="447" y="600"/>
      <point x="405" y="600" type="curve" smooth="yes"/>
      <point x="300" y="600"/>
      <point x="232" y="515"/>
      <point x="232" y="412" type="curve" smooth="yes"/>
      <point x="232" y="312"/>
      <point x="288" y="248"/>
      <point x="376" y="201" type="curve"/>
      <point x="356" y="166"/>
      <point x="334" y="123"/>
      <point x="318" y="88" type="curve"/>
      <point x="261" y="118"/>
      <point x="194" y="163"/>
      <point x="144" y="204" type="curve"/>
      <point x="144" y="670" type="line"/>
      <point x="70" y="670" type="line"/>
      <point x="70" y="-56" type="line"/>
      <point x="144" y="-56" type="line"/>
      <point x="144" y="112" type="line"/>
      <point x="205" y="67"/>
      <point x="278" y="23"/>
      <point x="349" y="-12" type="curve"/>
      <point x="384" y="61"/>
      <point x="431" y="152"/>
      <point x="478" y="236" type="curve"/>
      <point x="392" y="273"/>
      <point x="310" y="321"/>
      <point x="310" y="412" type="curve" smooth="yes"/>
      <point x="310" y="481"/>
      <point x="351" y="520"/>
      <point x="405" y="520" type="curve" smooth="yes"/>
      <point x="477" y="520"/>
      <point x="521" y="486"/>
      <point x="572" y="307" type="curve" smooth="yes"/>
      <point x="616" y="152"/>
      <point x="660" y="45"/>
    </contour>
    <contour>
      <point x="567" y="511" type="curve"/>
      <point x="640" y="574"/>
      <point x="723" y="594"/>
      <point x="849" y="594" type="curve"/>
      <point x="788" y="443"/>
      <point x="759" y="282"/>
      <point x="759" y="84" type="curve" smooth="yes"/>
      <point x="759" y="65"/>
      <point x="760" y="44"/>
      <point x="763" y="27" type="curve"/>
      <point x="759" y="27" type="line"/>
      <point x="710" y="122"/>
      <point x="677" y="209"/>
      <point x="643" y="328" type="curve" smooth="yes"/>
      <point x="620" y="409"/>
      <point x="595" y="469"/>
    </contour>
  </outline>
</glyph>
<glyph name="uniA865.ini.cnt" format="2">
  <advance width="688"/>
  <outline>
    <contour>
      <point x="578" y="-56" type="line"/>
      <point x="578" y="20" type="line"/>
      <point x="510" y="89"/>
      <point x="458" y="171"/>
      <point x="425" y="269" type="curve"/>
      <point x="708" y="269" type="line"/>
      <point x="708" y="345" type="line"/>
      <point x="404" y="345" type="line" smooth="yes"/>
      <point x="297" y="345"/>
      <point x="213" y="330"/>
      <point x="144" y="293" type="curve"/>
      <point x="144" y="594" type="line"/>
      <point x="578" y="594" type="line"/>
      <point x="578" y="670" type="line"/>
      <point x="70" y="670" type="line"/>
      <point x="70" y="-56" type="line"/>
    </contour>
    <contour>
      <point x="350" y="268" type="curve"/>
      <point x="371" y="184"/>
      <point x="422" y="90"/>
      <point x="489" y="22" type="curve"/>
      <point x="489" y="18" type="line"/>
      <point x="460" y="19"/>
      <point x="421" y="20"/>
      <point x="386" y="20" type="curve" smooth="yes"/>
      <point x="144" y="20" type="line"/>
      <point x="144" y="208" type="line"/>
      <point x="208" y="250"/>
      <point x="266" y="264"/>
    </contour>
  </outline>
</glyph>
<glyph name="uniA866.ini" format="2">
  <advance width="574"/>
  <outline>
    <contour>
      <point x="70" y="670" type="line"/>
      <point x="70" y="-56" type="line"/>
      <point x="412" y="-56" type="line"/>
      <point x="384" y="46"/>
      <point x="373" y="151"/>
      <point x="373" y="264" type="curve" smooth="yes"/>
      <point x="373" y="400"/>
      <point x="387" y="496"/>
      <point x="422" y="594" type="curve"/>
      <point x="594" y="594" type="line"/>
      <point x="594" y="670" type="line"/>
      <point x="372" y="670" type="line"/>
      <point x="321" y="553"/>
      <point x="299" y="428"/>
      <point x="299" y="264" type="curve" smooth="yes"/>
      <point x="299" y="178"/>
      <point x="304" y="99"/>
      <point x="320" y="20" type="curve"/>
      <point x="144" y="20" type="line"/>
      <point x="144" y="670" type="line"/>
    </contour>
  </outline>
</glyph>
<glyph name="uniA868.ini" format="2">
  <advance width="546"/>
  <outline>
    <contour>
      <point x="136" y="670" type="curve"/>
      <point x="60" y="670" type="line"/>
      <point x="78" y="561"/>
      <point x="89" y="450"/>
      <point x="89" y="311" type="curve" smooth="yes"/>
      <point x="89" y="185"/>
      <point x="80" y="59"/>
      <point x="62" y="-56" type="curve"/>
      <point x="109" y="-56" type="line" smooth="yes"/>
      <point x="268" y="-56"/>
      <point x="393" y="28"/>
      <point x="393" y="358" type="curve" smooth="yes"/>
      <point x="393" y="437"/>
      <point x="386" y="517"/>
      <point x="372" y="594" type="curve"/>
      <point x="566" y="594" type="line"/>
      <point x="566" y="670" type="line"/>
      <point x="282" y="670" type="line"/>
      <point x="307" y="571"/>
      <point x="319" y="464"/>
      <point x="319" y="361" type="curve" smooth="yes"/>
      <point x="319" y="105"/>
      <point x="242" y="28"/>
      <point x="144" y="20" type="curve"/>
      <point x="156" y="102"/>
      <point x="163" y="204"/>
      <point x="163" y="311" type="curve" smooth="yes"/>
      <point x="163" y="450"/>
      <point x="154" y="561"/>
    </contour>
  </outline>
</glyph>
<glyph name="uniA868.mir" format="2">
  <advance width="453"/>
  <outline>
    <contour>
      <point x="60" y="-56" type="curve"/>
      <point x="136" y="-56" type="line"/>
      <point x="154" y="53"/>
      <point x="163" y="164"/>
      <point x="163" y="303" type="curve" smooth="yes"/>
      <point x="163" y="410"/>
      <point x="156" y="512"/>
      <point x="144" y="594" type="curve"/>
      <point x="242" y="586"/>
      <point x="319" y="509"/>
      <point x="319" y="253" type="curve" smooth="yes"/>
      <point x="319" y="150"/>
      <point x="307" y="43"/>
      <point x="282" y="-56" type="curve"/>
      <point x="356" y="-56" type="line"/>
      <point x="381" y="43"/>
      <point x="393" y="150"/>
      <point x="393" y="256" type="curve" smooth="yes"/>
      <point x="393" y="586"/>
      <point x="268" y="670"/>
      <point x="109" y="670" type="curve" smooth="yes"/>
      <point x="62" y="670" type="line"/>
      <point x="80" y="555"/>
      <point x="89" y="429"/>
      <point x="89" y="303" type="curve" smooth="yes"/>
      <point x="89" y="164"/>
      <point x="78" y="53"/>
    </contour>
  </outline>
</glyph>
<glyph name="uniA869.ini.cnt" format="2">
  <advance width="718"/>
  <outline>
    <contour>
      <point x="70" y="-56" type="line"/>
      <point x="144" y="-56" type="line"/>
      <point x="144" y="269" type="line"/>
      <point x="270" y="269" type="line"/>
      <point x="243" y="230"/>
      <point x="232" y="188"/>
      <point x="232" y="128" type="curve" smooth="yes"/>
      <point x="232" y="21"/>
      <point x="304" y="-61"/>
      <point x="415" y="-61" type="curve" smooth="yes"/>
      <point x="464" y="-61"/>
      <point x="503" y="-48"/>
      <point x="538" y="-21" type="curve"/>
      <point x="557" y="-56" type="line"/>
      <point x="641" y="-56" type="line"/>
      <point x="615" y="-9"/>
      <point x="587" y="42"/>
      <point x="566" y="84" type="curve"/>
      <point x="516" y="38"/>
      <point x="467" y="19"/>
      <point x="415" y="19" type="curve" smooth="yes"/>
      <point x="355" y="19"/>
      <point x="310" y="57"/>
      <point x="310" y="128" type="curve" smooth="yes"/>
      <point x="310" y="182"/>
      <point x="325" y="230"/>
      <point x="356" y="269" type="curve"/>
      <point x="738" y="269" type="line"/>
      <point x="738" y="345" type="line"/>
      <point x="144" y="345" type="line"/>
      <point x="144" y="594" type="line"/>
      <point x="628" y="594" type="line"/>
      <point x="628" y="670" type="line"/>
      <point x="70" y="670" type="line"/>
    </contour>
  </outline>
</glyph>
<glyph name="uniA869.ini" format="2">
  <advance width="788"/>
  <outline>
    <contour>
      <point x="70" y="-56" type="line"/>
      <point x="144" y="-56" type="line"/>
      <point x="144" y="299" type="line"/>
      <point x="275" y="299" type="line"/>
      <point x="245" y="258"/>
      <point x="232" y="215"/>
      <point x="232" y="152" type="curve" smooth="yes"/>
      <point x="232" y="45"/>
      <point x="304" y="-37"/>
      <point x="415" y="-37" type="curve" smooth="yes"/>
      <point x="468" y="-37"/>
      <point x="509" y="-24"/>
      <point x="546" y="2" type="curve"/>
      <point x="576" y="-36"/>
      <point x="616" y="-56"/>
      <point x="694" y="-56" type="curve" smooth="yes"/>
      <point x="808" y="-56" type="line"/>
      <point x="808" y="20" type="line"/>
      <point x="707" y="20" type="line" smooth="yes"/>
      <point x="636" y="20"/>
      <point x="601" y="45"/>
      <point x="566" y="108" type="curve"/>
      <point x="516" y="62"/>
      <point x="467" y="43"/>
      <point x="415" y="43" type="curve" smooth="yes"/>
      <point x="355" y="43"/>
      <point x="310" y="81"/>
      <point x="310" y="152" type="curve" smooth="yes"/>
      <point x="310" y="209"/>
      <point x="327" y="259"/>
      <point x="361" y="299" type="curve"/>
      <point x="628" y="299" type="line"/>
      <point x="628" y="375" type="line"/>
      <point x="144" y="375" type="line"/>
      <point x="144" y="594" type="line"/>
      <point x="628" y="594" type="line"/>
      <point x="628" y="670" type="line"/>
      <point x="70" y="670" type="line"/>
    </contour>
  </outline>
</glyph>
<glyph name="uniA86A.ini" format="2">
  <advance width="798"/>
  <outline>
    <contour>
      <point x="636" y="670" type="curve"/>
      <point x="515" y="670"/>
      <point x="426" y="624"/>
      <point x="378" y="576" type="curve"/>
      <point x="378" y="660" type="line"/>
      <point x="270" y="638"/>
      <point x="190" y="597"/>
      <point x="144" y="547" type="curve"/>
      <point x="144" y="670" type="line"/>
      <point x="70" y="670" type="line"/>
      <point x="70" y="-56" type="line"/>
      <point x="818" y="-56" type="line"/>
      <point x="818" y="20" type="line"/>
      <point x="646" y="20" type="line"/>
      <point x="611" y="118"/>
      <point x="597" y="214"/>
      <point x="597" y="350" type="curve" smooth="yes"/>
      <point x="597" y="463"/>
      <point x="608" y="568"/>
    </contour>
    <contour>
      <point x="541" y="581" type="curve"/>
      <point x="528" y="506"/>
      <point x="523" y="431"/>
      <point x="523" y="350" type="curve" smooth="yes"/>
      <point x="523" y="221"/>
      <point x="537" y="116"/>
      <point x="567" y="20" type="curve"/>
      <point x="378" y="20" type="line"/>
      <point x="378" y="479" type="line"/>
      <point x="414" y="527"/>
      <point x="466" y="565"/>
    </contour>
    <contour>
      <point x="304" y="562" type="curve"/>
      <point x="304" y="20" type="line"/>
      <point x="144" y="20" type="line"/>
      <point x="144" y="447" type="line"/>
      <point x="182" y="503"/>
      <point x="234" y="542"/>
    </contour>
  </outline>
</glyph>
<glyph name="uniA86B.ini" format="2">
  <advance width="594"/>
  <outline>
    <contour>
      <point x="432" y="670" type="curve"/>
      <point x="296" y="670"/>
      <point x="198" y="615"/>
      <point x="144" y="556" type="curve"/>
      <point x="144" y="670" type="line"/>
      <point x="70" y="670" type="line"/>
      <point x="70" y="-56" type="line"/>
      <point x="144" y="-56" type="line"/>
      <point x="144" y="459" type="line"/>
      <point x="186" y="517"/>
      <point x="247" y="563"/>
      <point x="337" y="581" type="curve"/>
      <point x="324" y="506"/>
      <point x="319" y="431"/>
      <point x="319" y="350" type="curve" smooth="yes"/>
      <point x="319" y="186"/>
      <point x="341" y="61"/>
      <point x="392" y="-56" type="curve"/>
      <point x="614" y="-56" type="line"/>
      <point x="614" y="20" type="line"/>
      <point x="442" y="20" type="line"/>
      <point x="407" y="118"/>
      <point x="393" y="214"/>
      <point x="393" y="350" type="curve" smooth="yes"/>
      <point x="393" y="463"/>
      <point x="404" y="568"/>
    </contour>
  </outline>
</glyph>
<glyph name="uniA86C.ini" format="2">
  <advance width="761"/>
  <outline>
    <contour>
      <point x="781" y="20" type="line"/>
      <point x="601" y="20" type="line"/>
      <point x="508" y="85"/>
      <point x="442" y="146"/>
      <point x="396" y="205" type="curve"/>
      <point x="532" y="258"/>
      <point x="601" y="347"/>
      <point x="601" y="468" type="curve" smooth="yes"/>
      <point x="601" y="580"/>
      <point x="545" y="676"/>
      <point x="414" y="676" type="curve" smooth="yes"/>
      <point x="298" y="676"/>
      <point x="225" y="594"/>
      <point x="225" y="461" type="curve" smooth="yes"/>
      <point x="225" y="297"/>
      <point x="326" y="139"/>
      <point x="490" y="21" type="curve"/>
      <point x="490" y="17" type="line"/>
      <point x="461" y="19"/>
      <point x="423" y="20"/>
      <point x="395" y="20" type="curve" smooth="yes"/>
      <point x="144" y="20" type="line"/>
      <point x="144" y="670" type="line"/>
      <point x="70" y="670" type="line"/>
      <point x="70" y="-56" type="line"/>
      <point x="781" y="-56" type="line"/>
    </contour>
    <contour>
      <point x="303" y="461" type="curve" smooth="yes"/>
      <point x="303" y="548"/>
      <point x="345" y="596"/>
      <point x="414" y="596" type="curve" smooth="yes"/>
      <point x="487" y="596"/>
      <point x="523" y="548"/>
      <point x="523" y="466" type="curve" smooth="yes"/>
      <point x="523" y="385"/>
      <point x="474" y="313"/>
      <point x="353" y="270" type="curve"/>
      <point x="317" y="334"/>
      <point x="303" y="397"/>
    </contour>
  </outline>
</glyph>
<glyph name="uniA86D.ini.cnt" format="2">
  <advance width="619"/>
  <outline>
    <contour>
      <point x="70" y="405" type="curve"/>
      <point x="70" y="323" type="line"/>
      <point x="115" y="288"/>
      <point x="179" y="269"/>
      <point x="243" y="269" type="curve" smooth="yes"/>
      <point x="318" y="269" type="line" smooth="yes"/>
      <point x="387" y="269"/>
      <point x="429" y="235"/>
      <point x="429" y="174" type="curve" smooth="yes"/>
      <point x="429" y="113"/>
      <point x="387" y="80"/>
      <point x="318" y="80" type="curve" smooth="yes"/>
      <point x="243" y="80" type="line" smooth="yes"/>
      <point x="179" y="80"/>
      <point x="115" y="61"/>
      <point x="70" y="26" type="curve"/>
      <point x="70" y="-56" type="line"/>
      <point x="118" y="-20"/>
      <point x="179" y="4"/>
      <point x="243" y="4" type="curve" smooth="yes"/>
      <point x="318" y="4" type="line" smooth="yes"/>
      <point x="430" y="4"/>
      <point x="507" y="71"/>
      <point x="507" y="174" type="curve" smooth="yes"/>
      <point x="507" y="210"/>
      <point x="493" y="243"/>
      <point x="468" y="267" type="curve"/>
      <point x="468" y="271" type="line"/>
      <point x="491" y="270"/>
      <point x="523" y="269"/>
      <point x="558" y="269" type="curve" smooth="yes"/>
      <point x="639" y="269" type="line"/>
      <point x="639" y="345" type="line"/>
      <point x="393" y="345" type="line"/>
      <point x="415" y="434"/>
      <point x="461" y="533"/>
      <point x="572" y="670" type="curve"/>
      <point x="70" y="670" type="line"/>
      <point x="70" y="594" type="line"/>
      <point x="424" y="594" type="line"/>
      <point x="376" y="520"/>
      <point x="339" y="435"/>
      <point x="316" y="345" type="curve"/>
      <point x="243" y="345" type="line" smooth="yes"/>
      <point x="179" y="345"/>
      <point x="118" y="369"/>
    </contour>
  </outline>
</glyph>
<glyph name="uniA86D.ini" format="2">
  <advance width="669"/>
  <outline>
    <contour>
      <point x="70" y="405" type="curve"/>
      <point x="70" y="323" type="line"/>
      <point x="115" y="288"/>
      <point x="179" y="269"/>
      <point x="243" y="269" type="curve" smooth="yes"/>
      <point x="318" y="269" type="line" smooth="yes"/>
      <point x="387" y="269"/>
      <point x="429" y="235"/>
      <point x="429" y="174" type="curve" smooth="yes"/>
      <point x="429" y="113"/>
      <point x="387" y="80"/>
      <point x="318" y="80" type="curve" smooth="yes"/>
      <point x="243" y="80" type="line" smooth="yes"/>
      <point x="179" y="80"/>
      <point x="115" y="61"/>
      <point x="70" y="26" type="curve"/>
      <point x="70" y="-56" type="line"/>
      <point x="118" y="-20"/>
      <point x="179" y="4"/>
      <point x="243" y="4" type="curve" smooth="yes"/>
      <point x="318" y="4" type="line" smooth="yes"/>
      <point x="430" y="4"/>
      <point x="507" y="71"/>
      <point x="507" y="174" type="curve" smooth="yes"/>
      <point x="507" y="253"/>
      <point x="462" y="311"/>
      <point x="390" y="334" type="curve"/>
      <point x="407" y="409"/>
      <point x="440" y="489"/>
      <point x="514" y="594" type="curve"/>
      <point x="689" y="594" type="line"/>
      <point x="689" y="670" type="line"/>
      <point x="70" y="670" type="line"/>
      <point x="70" y="594" type="line"/>
      <point x="424" y="594" type="line"/>
      <point x="376" y="520"/>
      <point x="339" y="435"/>
      <point x="316" y="345" type="curve"/>
      <point x="243" y="345" type="line" smooth="yes"/>
      <point x="179" y="345"/>
      <point x="118" y="369"/>
    </contour>
  </outline>
</glyph>
<glyph name="uniA86D.str.med.cnt" format="2">
  <advance width="549"/>
  <outline>
    <contour>
      <point x="488" y="269" type="curve" smooth="yes"/>
      <point x="569" y="269" type="line"/>
      <point x="569" y="345" type="line"/>
      <point x="323" y="345" type="line"/>
      <point x="345" y="434"/>
      <point x="391" y="533"/>
      <point x="502" y="670" type="curve"/>
      <point x="0" y="670" type="line"/>
      <point x="0" y="594" type="line"/>
      <point x="354" y="594" type="line"/>
      <point x="306" y="520"/>
      <point x="269" y="435"/>
      <point x="246" y="345" type="curve"/>
      <point x="0" y="345" type="line"/>
      <point x="0" y="269" type="line"/>
      <point x="248" y="269" type="line" smooth="yes"/>
      <point x="317" y="269"/>
      <point x="359" y="235"/>
      <point x="359" y="174" type="curve" smooth="yes"/>
      <point x="359" y="113"/>
      <point x="317" y="80"/>
      <point x="248" y="80" type="curve" smooth="yes"/>
      <point x="173" y="80" type="line" smooth="yes"/>
      <point x="109" y="80"/>
      <point x="45" y="61"/>
      <point x="0" y="26" type="curve"/>
      <point x="0" y="-56" type="line"/>
      <point x="48" y="-20"/>
      <point x="109" y="4"/>
      <point x="173" y="4" type="curve" smooth="yes"/>
      <point x="248" y="4" type="line" smooth="yes"/>
      <point x="360" y="4"/>
      <point x="437" y="71"/>
      <point x="437" y="174" type="curve" smooth="yes"/>
      <point x="437" y="210"/>
      <point x="423" y="243"/>
      <point x="398" y="267" type="curve"/>
      <point x="398" y="271" type="line"/>
      <point x="421" y="270"/>
      <point x="453" y="269"/>
    </contour>
  </outline>
</glyph>
<glyph name="uniA86D.str.med" format="2">
  <advance width="599"/>
  <outline>
    <contour>
      <point x="246" y="345" type="curve"/>
      <point x="0" y="345" type="line"/>
      <point x="0" y="269" type="line"/>
      <point x="248" y="269" type="line" smooth="yes"/>
      <point x="317" y="269"/>
      <point x="359" y="235"/>
      <point x="359" y="174" type="curve" smooth="yes"/>
      <point x="359" y="113"/>
      <point x="317" y="80"/>
      <point x="248" y="80" type="curve" smooth="yes"/>
      <point x="173" y="80" type="line" smooth="yes"/>
      <point x="109" y="80"/>
      <point x="45" y="61"/>
      <point x="0" y="26" type="curve"/>
      <point x="0" y="-56" type="line"/>
      <point x="48" y="-20"/>
      <point x="109" y="4"/>
      <point x="173" y="4" type="curve" smooth="yes"/>
      <point x="248" y="4" type="line" smooth="yes"/>
      <point x="360" y="4"/>
      <point x="437" y="71"/>
      <point x="437" y="174" type="curve" smooth="yes"/>
      <point x="437" y="253"/>
      <point x="392" y="311"/>
      <point x="320" y="334" type="curve"/>
      <point x="338" y="408"/>
      <point x="371" y="489"/>
      <point x="444" y="594" type="curve"/>
      <point x="619" y="594" type="line"/>
      <point x="619" y="670" type="line"/>
      <point x="0" y="670" type="line"/>
      <point x="0" y="594" type="line"/>
      <point x="354" y="594" type="line"/>
      <point x="306" y="520"/>
      <point x="269" y="435"/>
    </contour>
  </outline>
</glyph>
<glyph name="uniA86E.ini" format="2">
  <advance width="824"/>
  <outline>
    <contour>
      <point x="144" y="67" type="line"/>
      <point x="144" y="594" type="line"/>
      <point x="844" y="594" type="line"/>
      <point x="844" y="670" type="line"/>
      <point x="70" y="670" type="line"/>
      <point x="70" y="-56" type="line"/>
      <point x="388" y="110" type="line"/>
      <point x="388" y="347" type="line"/>
      <point x="562" y="347" type="line"/>
      <point x="553" y="301"/>
      <point x="548" y="242"/>
      <point x="548" y="184" type="curve" smooth="yes"/>
      <point x="548" y="95"/>
      <point x="558" y="14"/>
      <point x="577" y="-56" type="curve"/>
      <point x="652" y="-56" type="line"/>
      <point x="633" y="20"/>
      <point x="622" y="102"/>
      <point x="622" y="184" type="curve" smooth="yes"/>
      <point x="622" y="266"/>
      <point x="633" y="347"/>
      <point x="652" y="423" type="curve"/>
      <point x="314" y="423" type="line"/>
      <point x="314" y="156" type="line"/>
    </contour>
  </outline>
</glyph>
<glyph name="uniA86F.ini" format="2">
  <advance width="626"/>
  <outline>
    <contour>
      <point x="646" y="594" type="line"/>
      <point x="646" y="670" type="line"/>
      <point x="505" y="670" type="line" smooth="yes"/>
      <point x="322" y="670"/>
      <point x="232" y="566"/>
      <point x="232" y="432" type="curve" smooth="yes"/>
      <point x="232" y="323"/>
      <point x="289" y="253"/>
      <point x="376" y="201" type="curve"/>
      <point x="357" y="167"/>
      <point x="334" y="123"/>
      <point x="318" y="88" type="curve"/>
      <point x="261" y="118"/>
      <point x="194" y="163"/>
      <point x="144" y="204" type="curve"/>
      <point x="144" y="670" type="line"/>
      <point x="70" y="670" type="line"/>
      <point x="70" y="-56" type="line"/>
      <point x="144" y="-56" type="line"/>
      <point x="144" y="112" type="line"/>
      <point x="205" y="67"/>
      <point x="278" y="23"/>
      <point x="349" y="-12" type="curve"/>
      <point x="384" y="61"/>
      <point x="431" y="152"/>
      <point x="478" y="236" type="curve"/>
      <point x="392" y="277"/>
      <point x="310" y="331"/>
      <point x="310" y="432" type="curve" smooth="yes"/>
      <point x="310" y="534"/>
      <point x="373" y="594"/>
      <point x="505" y="594" type="curve" smooth="yes"/>
    </contour>
  </outline>
</glyph>
<glyph name="uniA870.ini" format="2">
  <advance width="1211"/>
  <outline>
    <contour>
      <point x="485" y="398" type="curve"/>
      <point x="557" y="398" type="line"/>
      <point x="550" y="421"/>
      <point x="544" y="457"/>
      <point x="544" y="484" type="curve" smooth="yes"/>
      <point x="544" y="527"/>
      <point x="571" y="560"/>
      <point x="610" y="560" type="curve" smooth="yes"/>
      <point x="670" y="560"/>
      <point x="696" y="526"/>
      <point x="730" y="353" type="curve" smooth="yes"/>
      <point x="765" y="175"/>
      <point x="821" y="45"/>
      <point x="891" y="-56" type="curve"/>
      <point x="1006" y="-56" type="line"/>
      <point x="1000" y="-16"/>
      <point x="997" y="35"/>
      <point x="997" y="84" type="curve" smooth="yes"/>
      <point x="997" y="276"/>
      <point x="1027" y="437"/>
      <point x="1095" y="594" type="curve"/>
      <point x="1231" y="594" type="line"/>
      <point x="1231" y="670" type="line"/>
      <point x="1017" y="670" type="line" smooth="yes"/>
      <point x="887" y="670"/>
      <point x="799" y="649"/>
      <point x="717" y="593" type="curve"/>
      <point x="688" y="627"/>
      <point x="652" y="640"/>
      <point x="610" y="640" type="curve" smooth="yes"/>
      <point x="549" y="640"/>
      <point x="505" y="611"/>
      <point x="487" y="555" type="curve"/>
      <point x="460" y="591"/>
      <point x="422" y="610"/>
      <point x="366" y="610" type="curve" smooth="yes"/>
      <point x="271" y="610"/>
      <point x="208" y="538"/>
      <point x="208" y="448" type="curve" smooth="yes"/>
      <point x="208" y="315"/>
      <point x="297" y="232"/>
      <point x="435" y="170" type="curve"/>
      <point x="416" y="136"/>
      <point x="394" y="92"/>
      <point x="378" y="58" type="curve"/>
      <point x="303" y="94"/>
      <point x="212" y="154"/>
      <point x="144" y="204" type="curve"/>
      <point x="144" y="670" type="line"/>
      <point x="70" y="670" type="line"/>
      <point x="70" y="-56" type="line"/>
      <point x="144" y="-56" type="line"/>
      <point x="144" y="112" type="line"/>
      <point x="223" y="56"/>
      <point x="314" y="2"/>
      <point x="409" y="-42" type="curve"/>
      <point x="444" y="31"/>
      <point x="491" y="122"/>
      <point x="538" y="206" type="curve"/>
      <point x="410" y="257"/>
      <point x="286" y="324"/>
      <point x="286" y="448" type="curve" smooth="yes"/>
      <point x="286" y="501"/>
      <point x="322" y="530"/>
      <point x="366" y="530" type="curve" smooth="yes"/>
      <point x="422" y="530"/>
      <point x="457" y="503"/>
    </contour>
    <contour>
      <point x="756" y="529" type="curve"/>
      <point x="824" y="578"/>
      <point x="902" y="593"/>
      <point x="1013" y="594" type="curve"/>
      <point x="952" y="443"/>
      <point x="923" y="282"/>
      <point x="923" y="84" type="curve" smooth="yes"/>
      <point x="923" y="65"/>
      <point x="924" y="44"/>
      <point x="927" y="27" type="curve"/>
      <point x="924" y="27" type="line"/>
      <point x="867" y="129"/>
      <point x="829" y="233"/>
      <point x="803" y="368" type="curve" smooth="yes"/>
      <point x="790" y="436"/>
      <point x="774" y="489"/>
    </contour>
  </outline>
</glyph>
<glyph name="uniA871.ini" format="2">
  <advance width="479"/>
  <outline>
    <contour>
      <point x="379" y="594" type="curve"/>
      <point x="499" y="594" type="line"/>
      <point x="499" y="670" type="line"/>
      <point x="70" y="670" type="line"/>
      <point x="70" y="594" type="line"/>
      <point x="284" y="594" type="line"/>
      <point x="135" y="393"/>
      <point x="70" y="196"/>
      <point x="70" y="-56" type="curve"/>
      <point x="144" y="-56" type="line"/>
      <point x="144" y="181"/>
      <point x="215" y="392"/>
    </contour>
  </outline>
</glyph>
